<?xml version="1.0" encoding="UTF-8" standalone="no"?>
<!-- Created with Inkscape (http://www.inkscape.org/) -->

<svg
   xmlns:dc="http://purl.org/dc/elements/1.1/"
   xmlns:cc="http://creativecommons.org/ns#"
   xmlns:rdf="http://www.w3.org/1999/02/22-rdf-syntax-ns#"
   xmlns:svg="http://www.w3.org/2000/svg"
   xmlns="http://www.w3.org/2000/svg"
   xmlns:xlink="http://www.w3.org/1999/xlink"
   xmlns:sodipodi="http://sodipodi.sourceforge.net/DTD/sodipodi-0.dtd"
   xmlns:inkscape="http://www.inkscape.org/namespaces/inkscape"
   width="210mm"
   height="297mm"
   viewBox="0 0 210 297"
   version="1.1"
   id="svg3834"
   inkscape:version="0.92.3 (2405546, 2018-03-11)"
   sodipodi:docname="Logo19.svg"
   inkscape:export-filename="Logo19.png"
   inkscape:export-xdpi="96"
   inkscape:export-ydpi="96">
  <defs
     id="defs3828">
    <linearGradient
       inkscape:collect="always"
       id="linearGradient4721">
      <stop
         style="stop-color:#3cc419;stop-opacity:1;"
         offset="0"
         id="stop4717" />
      <stop
         style="stop-color:#3cc419;stop-opacity:0;"
         offset="1"
         id="stop4719" />
    </linearGradient>
    <linearGradient
       inkscape:collect="always"
       xlink:href="#linearGradient4721"
       id="linearGradient4723"
       x1="-75.14167"
       y1="153.96217"
       x2="-172.52847"
       y2="196.56009"
       gradientUnits="userSpaceOnUse" />
  </defs>
  <sodipodi:namedview
     id="base"
     pagecolor="#ffffff"
     bordercolor="#666666"
     borderopacity="1.0"
     inkscape:pageopacity="0.0"
     inkscape:pageshadow="2"
     inkscape:zoom="1"
     inkscape:cx="6.0083064"
     inkscape:cy="621.56681"
     inkscape:document-units="mm"
     inkscape:current-layer="layer1"
     showgrid="false"
     showborder="false"
     showguides="true"
     inkscape:guide-bbox="true"
     inkscape:object-paths="false"
     inkscape:snap-intersection-paths="false"
     inkscape:object-nodes="false"
     inkscape:snap-nodes="true"
     inkscape:snap-smooth-nodes="false"
     inkscape:window-width="1366"
     inkscape:window-height="705"
     inkscape:window-x="-8"
     inkscape:window-y="-8"
     inkscape:window-maximized="1" />
  <metadata
     id="metadata3831">
    <rdf:RDF>
      <cc:Work
         rdf:about="">
        <dc:format>image/svg+xml</dc:format>
        <dc:type
           rdf:resource="http://purl.org/dc/dcmitype/StillImage" />
        <dc:title></dc:title>
      </cc:Work>
    </rdf:RDF>
  </metadata>
  <g
     inkscape:label="Layer 1"
     inkscape:groupmode="layer"
     id="layer1">
    <path
       style="fill:url(#linearGradient4723);stroke:none;stroke-width:0.26458332px;stroke-linecap:butt;stroke-linejoin:miter;stroke-opacity:1;fill-opacity:1"
       d="m -32.834061,139.42457 h 3.133736 l 0.04684,23.34689 -59.246513,-9.99991 v -43.12708 l 59.246513,-9.999906 -0.04599,23.491106 h -3.141927 l 0.01291,-20.10837 -52.896505,8.92814 v 38.50462 l 52.896513,8.92814 z"
       id="path4449"
       inkscape:connector-curvature="0" />
    <text
       xml:space="preserve"
       style="font-style:normal;font-variant:normal;font-weight:normal;font-stretch:normal;font-size:3.81705546px;line-height:1.25;font-family:Sansita;-inkscape-font-specification:'Sansita, Normal';font-variant-ligatures:normal;font-variant-caps:normal;font-variant-numeric:normal;font-feature-settings:normal;text-align:start;letter-spacing:0px;word-spacing:0px;writing-mode:lr-tb;text-anchor:start;fill:#000000;fill-opacity:1;stroke:none;stroke-width:0.26458332"
       x="-25.929169"
       y="144.70401"
       id="text4453"><tspan
         sodipodi:role="line"
         id="tspan4451"
         x="-25.929169"
         y="144.70401"
         style="fill:#000000;stroke-width:0.26458332">frame &amp; gift gallery</tspan></text>
    <g
       id="g4643"
       style="fill:#ff6600">
      <path
         d="m -70.649948,137.77506 h -3.419257 l -0.887112,-2.59244 h -4.754232 l -0.887112,2.59244 h -3.33313 l 4.737006,-12.82437 h 3.806831 z m -5.107354,-4.94371 -1.576131,-4.59921 -1.576131,4.59921 z"
         style="font-style:normal;font-variant:normal;font-weight:bold;font-stretch:normal;font-size:17.63888931px;line-height:1.25;font-family:sans-serif;-inkscape-font-specification:'sans-serif, Bold';font-variant-ligatures:normal;font-variant-caps:normal;font-variant-numeric:normal;font-feature-settings:normal;text-align:start;letter-spacing:0px;word-spacing:0px;writing-mode:lr-tb;text-anchor:start;fill:#ff6600;fill-opacity:1;stroke:none;stroke-width:0.26458332"
         id="path4390"
         inkscape:connector-curvature="0" />
      <path
         d="m -58.695466,137.77506 h -3.608738 l -2.713013,-4.21163 -0.844048,1.02492 v 3.18671 h -3.100586 v -13.40142 h 3.100586 v 8.00123 l 3.341743,-4.27192 h 3.574286 l -3.479546,4.16857 z"
         style="font-style:normal;font-variant:normal;font-weight:bold;font-stretch:normal;font-size:17.63888931px;line-height:1.25;font-family:sans-serif;-inkscape-font-specification:'sans-serif, Bold';font-variant-ligatures:normal;font-variant-caps:normal;font-variant-numeric:normal;font-feature-settings:normal;text-align:start;letter-spacing:0px;word-spacing:0px;writing-mode:lr-tb;text-anchor:start;fill:#ff6600;fill-opacity:1;stroke:none;stroke-width:0.26458332"
         id="path4392"
         inkscape:connector-curvature="0" />
      <path
         d="m -51.25406,135.25153 v -2.01538 q -0.62873,0.0517 -1.360813,0.14641 -0.732083,0.0861 -1.111043,0.20671 -0.465088,0.14641 -0.714858,0.43063 -0.241156,0.27561 -0.241156,0.73209 0,0.30144 0.05168,0.49092 0.05168,0.18948 0.258382,0.36174 0.198093,0.17225 0.473701,0.25838 0.275608,0.0775 0.861274,0.0775 0.465088,0 0.938788,-0.18948 0.482314,-0.18948 0.844049,-0.49954 z m 0,1.49861 q -0.24977,0.18948 -0.620117,0.45648 -0.370348,0.26699 -0.697632,0.42202 -0.456475,0.20671 -0.947401,0.30145 -0.490927,0.10335 -1.076593,0.10335 -1.378038,0 -2.308214,-0.85266 -0.930176,-0.85266 -0.930176,-2.17902 0,-1.05937 0.473701,-1.73116 0.473701,-0.6718 1.343587,-1.05937 0.861274,-0.38757 2.135959,-0.55122 1.274686,-0.16364 2.644111,-0.24115 v -0.0517 q 0,-0.80098 -0.654568,-1.10243 -0.654568,-0.31006 -1.929253,-0.31006 -0.766534,0 -1.636421,0.27561 -0.869886,0.26699 -1.248847,0.41341 h -0.28422 v -2.33405 q 0.490926,-0.12919 1.593356,-0.30145 1.111044,-0.18086 2.222087,-0.18086 2.644111,0 3.815443,0.81821 1.179946,0.80959 1.179946,2.54937 v 6.58013 h -3.074748 z"
         style="font-style:normal;font-variant:normal;font-weight:bold;font-stretch:normal;font-size:17.63888931px;line-height:1.25;font-family:sans-serif;-inkscape-font-specification:'sans-serif, Bold';font-variant-ligatures:normal;font-variant-caps:normal;font-variant-numeric:normal;font-feature-settings:normal;text-align:start;letter-spacing:0px;word-spacing:0px;writing-mode:lr-tb;text-anchor:start;fill:#ff6600;fill-opacity:1;stroke:none;stroke-width:0.26458332"
         id="path4394"
         inkscape:connector-curvature="0" />
      <path
         d="m -35.613328,137.77506 h -3.117812 v -4.7973 q 0,-0.58566 -0.06029,-1.16272 -0.06029,-0.58566 -0.206706,-0.86127 -0.172255,-0.31867 -0.508151,-0.46509 -0.327285,-0.14641 -0.921564,-0.14641 -0.422024,0 -0.861273,0.1378 -0.430637,0.1378 -0.938789,0.43925 v 6.85574 h -3.100586 v -9.67211 h 3.100586 v 1.06798 q 0.826823,-0.64595 1.584744,-0.99046 0.766534,-0.34451 1.69671,-0.34451 1.567518,0 2.446017,0.91295 0.887113,0.91295 0.887113,2.73024 z"
         style="font-style:normal;font-variant:normal;font-weight:bold;font-stretch:normal;font-size:17.63888931px;line-height:1.25;font-family:sans-serif;-inkscape-font-specification:'sans-serif, Bold';font-variant-ligatures:normal;font-variant-caps:normal;font-variant-numeric:normal;font-feature-settings:normal;text-align:start;letter-spacing:0px;word-spacing:0px;writing-mode:lr-tb;text-anchor:start;fill:#ff6600;fill-opacity:1;stroke:none;stroke-width:0.26458332"
         id="path4396"
         inkscape:connector-curvature="0" />
      <path
         d="m -22.487513,137.77506 h -3.608738 l -2.713012,-4.21163 -0.844049,1.02492 v 3.18671 h -3.100586 v -13.40142 h 3.100586 v 8.00123 l 3.341743,-4.27192 h 3.574287 l -3.479547,4.16857 z"
         style="font-style:normal;font-variant:normal;font-weight:bold;font-stretch:normal;font-size:17.63888931px;line-height:1.25;font-family:sans-serif;-inkscape-font-specification:'sans-serif, Bold';font-variant-ligatures:normal;font-variant-caps:normal;font-variant-numeric:normal;font-feature-settings:normal;text-align:start;letter-spacing:0px;word-spacing:0px;writing-mode:lr-tb;text-anchor:start;fill:#ff6600;fill-opacity:1;stroke:none;stroke-width:0.26458332"
         id="path4398"
         inkscape:connector-curvature="0" />
      <path
         d="m -12.496737,134.70892 q 0,1.49862 -1.343587,2.42018 -1.343587,0.91295 -3.67764,0.91295 -1.291911,0 -2.342665,-0.24115 -1.050754,-0.24116 -1.688097,-0.53399 v -2.54937 h 0.284221 q 0.232544,0.16364 0.53399,0.36173 0.310058,0.18948 0.869886,0.41341 0.482314,0.1981 1.093818,0.34451 0.611505,0.13781 1.309136,0.13781 0.912951,0 1.3522,-0.1981 0.43925,-0.2067 0.43925,-0.60289 0,-0.35312 -0.258382,-0.50815 -0.258382,-0.16364 -0.981852,-0.31006 -0.34451,-0.0775 -0.938789,-0.16364 -0.585666,-0.0947 -1.067979,-0.22393 -1.317749,-0.34451 -1.955092,-1.06798 -0.637343,-0.73208 -0.637343,-1.81729 0,-1.39526 1.317749,-2.31683 1.326362,-0.93017 3.617351,-0.93017 1.085205,0 2.07567,0.22393 0.999077,0.21532 1.558905,0.46509 v 2.44602 h -0.266995 q -0.689019,-0.47371 -1.576131,-0.76654 -0.878499,-0.30144 -1.782837,-0.30144 -0.749308,0 -1.266072,0.2067 -0.508152,0.20671 -0.508152,0.58567 0,0.34451 0.232544,0.52537 0.232544,0.18087 1.093818,0.36174 0.473701,0.0947 1.016303,0.18948 0.551215,0.0861 1.102431,0.22393 1.223009,0.31867 1.808675,1.00769 0.585666,0.68041 0.585666,1.70532 z"
         style="font-style:normal;font-variant:normal;font-weight:bold;font-stretch:normal;font-size:17.63888931px;line-height:1.25;font-family:sans-serif;-inkscape-font-specification:'sans-serif, Bold';font-variant-ligatures:normal;font-variant-caps:normal;font-variant-numeric:normal;font-feature-settings:normal;text-align:start;letter-spacing:0px;word-spacing:0px;writing-mode:lr-tb;text-anchor:start;fill:#ff6600;fill-opacity:1;stroke:none;stroke-width:0.26458332"
         id="path4400"
         inkscape:connector-curvature="0" />
      <path
         d="M -0.71450948,137.77506 H -3.832321 v -4.7973 q 0,-0.58566 -0.060289,-1.16272 -0.060289,-0.58566 -0.2067058,-0.86127 -0.1722548,-0.31867 -0.5081516,-0.46509 -0.3272841,-0.14641 -0.921563,-0.14641 -0.4220242,0 -0.8612739,0.1378 -0.430637,0.1378 -0.9387886,0.43925 v 6.85574 h -3.1005861 v -13.40142 h 3.1005861 v 4.79729 q 0.826823,-0.64595 1.584744,-0.99046 0.7665338,-0.34451 1.6967096,-0.34451 1.5675184,0 2.4460178,0.91295 0.88711212,0.91295 0.88711212,2.73024 z"
         style="font-style:normal;font-variant:normal;font-weight:bold;font-stretch:normal;font-size:17.63888931px;line-height:1.25;font-family:sans-serif;-inkscape-font-specification:'sans-serif, Bold';font-variant-ligatures:normal;font-variant-caps:normal;font-variant-numeric:normal;font-feature-settings:normal;text-align:start;letter-spacing:0px;word-spacing:0px;writing-mode:lr-tb;text-anchor:start;fill:#ff6600;fill-opacity:1;stroke:none;stroke-width:0.26458332"
         id="path4402"
         inkscape:connector-curvature="0" />
      <path
         d="m 8.0015837,135.25153 v -2.01538 q -0.6287299,0.0517 -1.3608128,0.14641 -0.7320828,0.0861 -1.1110433,0.20671 -0.4650879,0.14641 -0.7148573,0.43063 -0.2411567,0.27561 -0.2411567,0.73209 0,0.30144 0.051676,0.49092 0.051676,0.18948 0.2583822,0.36174 0.198093,0.17225 0.4737007,0.25838 0.2756076,0.0775 0.8612738,0.0775 0.4650879,0 0.9387886,-0.18948 0.4823134,-0.18948 0.8440484,-0.49954 z m 0,1.49861 q -0.2497694,0.18948 -0.6201172,0.45648 -0.3703478,0.26699 -0.6976319,0.42202 -0.4564751,0.20671 -0.9474012,0.30145 -0.4909262,0.10335 -1.0765924,0.10335 -1.3780382,0 -2.308214,-0.85266 -0.9301758,-0.85266 -0.9301758,-2.17902 0,-1.05937 0.4737006,-1.73116 0.4737006,-0.6718 1.3435873,-1.05937 0.8612739,-0.38757 2.1359592,-0.55122 1.2746854,-0.16364 2.6441109,-0.24115 v -0.0517 q 0,-0.80098 -0.6545682,-1.10243 -0.6545681,-0.31006 -1.9292535,-0.31006 -0.7665338,0 -1.6364204,0.27561 -0.8698866,0.26699 -1.2488471,0.41341 H 2.2654996 v -2.33405 q 0.4909261,-0.12919 1.5933567,-0.30145 1.1110433,-0.18086 2.2220866,-0.18086 2.6441109,0 3.8154434,0.81821 1.1799447,0.80959 1.1799447,2.54937 v 6.58013 H 8.0015837 Z"
         style="font-style:normal;font-variant:normal;font-weight:bold;font-stretch:normal;font-size:17.63888931px;line-height:1.25;font-family:sans-serif;-inkscape-font-specification:'sans-serif, Bold';font-variant-ligatures:normal;font-variant-caps:normal;font-variant-numeric:normal;font-feature-settings:normal;text-align:start;letter-spacing:0px;word-spacing:0px;writing-mode:lr-tb;text-anchor:start;fill:#ff6600;fill-opacity:1;stroke:none;stroke-width:0.26458332"
         id="path4404"
         inkscape:connector-curvature="0" />
    </g>
    <g
       id="g4625"
       transform="translate(1.8520833)"
       style="fill:#ffffff;fill-opacity:0.39320388">
      <path
         inkscape:connector-curvature="0"
         id="path4609"
         style="font-style:normal;font-variant:normal;font-weight:bold;font-stretch:normal;font-size:17.63888931px;line-height:1.25;font-family:sans-serif;-inkscape-font-specification:'sans-serif, Bold';font-variant-ligatures:normal;font-variant-caps:normal;font-variant-numeric:normal;font-feature-settings:normal;text-align:start;letter-spacing:0px;word-spacing:0px;writing-mode:lr-tb;text-anchor:start;fill:#ffffff;fill-opacity:0.39320388;stroke:none;stroke-width:0.26458332"
         d="m -70.649948,137.77506 h -3.419257 l -0.887112,-2.59244 h -4.754232 l -0.887112,2.59244 h -3.33313 l 4.737006,-12.82437 h 3.806831 z m -5.107354,-4.94371 -1.576131,-4.59921 -1.576131,4.59921 z" />
      <path
         inkscape:connector-curvature="0"
         id="path4611"
         style="font-style:normal;font-variant:normal;font-weight:bold;font-stretch:normal;font-size:17.63888931px;line-height:1.25;font-family:sans-serif;-inkscape-font-specification:'sans-serif, Bold';font-variant-ligatures:normal;font-variant-caps:normal;font-variant-numeric:normal;font-feature-settings:normal;text-align:start;letter-spacing:0px;word-spacing:0px;writing-mode:lr-tb;text-anchor:start;fill:#ffffff;fill-opacity:0.39320388;stroke:none;stroke-width:0.26458332"
         d="m -58.695466,137.77506 h -3.608738 l -2.713013,-4.21163 -0.844048,1.02492 v 3.18671 h -3.100586 v -13.40142 h 3.100586 v 8.00123 l 3.341743,-4.27192 h 3.574286 l -3.479546,4.16857 z" />
      <path
         inkscape:connector-curvature="0"
         id="path4613"
         style="font-style:normal;font-variant:normal;font-weight:bold;font-stretch:normal;font-size:17.63888931px;line-height:1.25;font-family:sans-serif;-inkscape-font-specification:'sans-serif, Bold';font-variant-ligatures:normal;font-variant-caps:normal;font-variant-numeric:normal;font-feature-settings:normal;text-align:start;letter-spacing:0px;word-spacing:0px;writing-mode:lr-tb;text-anchor:start;fill:#ffffff;fill-opacity:0.39320388;stroke:none;stroke-width:0.26458332"
         d="m -51.25406,135.25153 v -2.01538 q -0.62873,0.0517 -1.360813,0.14641 -0.732083,0.0861 -1.111043,0.20671 -0.465088,0.14641 -0.714858,0.43063 -0.241156,0.27561 -0.241156,0.73209 0,0.30144 0.05168,0.49092 0.05168,0.18948 0.258382,0.36174 0.198093,0.17225 0.473701,0.25838 0.275608,0.0775 0.861274,0.0775 0.465088,0 0.938788,-0.18948 0.482314,-0.18948 0.844049,-0.49954 z m 0,1.49861 q -0.24977,0.18948 -0.620117,0.45648 -0.370348,0.26699 -0.697632,0.42202 -0.456475,0.20671 -0.947401,0.30145 -0.490927,0.10335 -1.076593,0.10335 -1.378038,0 -2.308214,-0.85266 -0.930176,-0.85266 -0.930176,-2.17902 0,-1.05937 0.473701,-1.73116 0.473701,-0.6718 1.343587,-1.05937 0.861274,-0.38757 2.135959,-0.55122 1.274686,-0.16364 2.644111,-0.24115 v -0.0517 q 0,-0.80098 -0.654568,-1.10243 -0.654568,-0.31006 -1.929253,-0.31006 -0.766534,0 -1.636421,0.27561 -0.869886,0.26699 -1.248847,0.41341 h -0.28422 v -2.33405 q 0.490926,-0.12919 1.593356,-0.30145 1.111044,-0.18086 2.222087,-0.18086 2.644111,0 3.815443,0.81821 1.179946,0.80959 1.179946,2.54937 v 6.58013 h -3.074748 z" />
      <path
         inkscape:connector-curvature="0"
         id="path4615"
         style="font-style:normal;font-variant:normal;font-weight:bold;font-stretch:normal;font-size:17.63888931px;line-height:1.25;font-family:sans-serif;-inkscape-font-specification:'sans-serif, Bold';font-variant-ligatures:normal;font-variant-caps:normal;font-variant-numeric:normal;font-feature-settings:normal;text-align:start;letter-spacing:0px;word-spacing:0px;writing-mode:lr-tb;text-anchor:start;fill:#ffffff;fill-opacity:0.39320388;stroke:none;stroke-width:0.26458332"
         d="m -35.613328,137.77506 h -3.117812 v -4.7973 q 0,-0.58566 -0.06029,-1.16272 -0.06029,-0.58566 -0.206706,-0.86127 -0.172255,-0.31867 -0.508151,-0.46509 -0.327285,-0.14641 -0.921564,-0.14641 -0.422024,0 -0.861273,0.1378 -0.430637,0.1378 -0.938789,0.43925 v 6.85574 h -3.100586 v -9.67211 h 3.100586 v 1.06798 q 0.826823,-0.64595 1.584744,-0.99046 0.766534,-0.34451 1.69671,-0.34451 1.567518,0 2.446017,0.91295 0.887113,0.91295 0.887113,2.73024 z" />
      <path
         inkscape:connector-curvature="0"
         id="path4617"
         style="font-style:normal;font-variant:normal;font-weight:bold;font-stretch:normal;font-size:17.63888931px;line-height:1.25;font-family:sans-serif;-inkscape-font-specification:'sans-serif, Bold';font-variant-ligatures:normal;font-variant-caps:normal;font-variant-numeric:normal;font-feature-settings:normal;text-align:start;letter-spacing:0px;word-spacing:0px;writing-mode:lr-tb;text-anchor:start;fill:#ffffff;fill-opacity:0.39320388;stroke:none;stroke-width:0.26458332"
         d="m -22.487513,137.77506 h -3.608738 l -2.713012,-4.21163 -0.844049,1.02492 v 3.18671 h -3.100586 v -13.40142 h 3.100586 v 8.00123 l 3.341743,-4.27192 h 3.574287 l -3.479547,4.16857 z" />
      <path
         inkscape:connector-curvature="0"
         id="path4619"
         style="font-style:normal;font-variant:normal;font-weight:bold;font-stretch:normal;font-size:17.63888931px;line-height:1.25;font-family:sans-serif;-inkscape-font-specification:'sans-serif, Bold';font-variant-ligatures:normal;font-variant-caps:normal;font-variant-numeric:normal;font-feature-settings:normal;text-align:start;letter-spacing:0px;word-spacing:0px;writing-mode:lr-tb;text-anchor:start;fill:#ffffff;fill-opacity:0.39320388;stroke:none;stroke-width:0.26458332"
         d="m -12.496737,134.70892 q 0,1.49862 -1.343587,2.42018 -1.343587,0.91295 -3.67764,0.91295 -1.291911,0 -2.342665,-0.24115 -1.050754,-0.24116 -1.688097,-0.53399 v -2.54937 h 0.284221 q 0.232544,0.16364 0.53399,0.36173 0.310058,0.18948 0.869886,0.41341 0.482314,0.1981 1.093818,0.34451 0.611505,0.13781 1.309136,0.13781 0.912951,0 1.3522,-0.1981 0.43925,-0.2067 0.43925,-0.60289 0,-0.35312 -0.258382,-0.50815 -0.258382,-0.16364 -0.981852,-0.31006 -0.34451,-0.0775 -0.938789,-0.16364 -0.585666,-0.0947 -1.067979,-0.22393 -1.317749,-0.34451 -1.955092,-1.06798 -0.637343,-0.73208 -0.637343,-1.81729 0,-1.39526 1.317749,-2.31683 1.326362,-0.93017 3.617351,-0.93017 1.085205,0 2.07567,0.22393 0.999077,0.21532 1.558905,0.46509 v 2.44602 h -0.266995 q -0.689019,-0.47371 -1.576131,-0.76654 -0.878499,-0.30144 -1.782837,-0.30144 -0.749308,0 -1.266072,0.2067 -0.508152,0.20671 -0.508152,0.58567 0,0.34451 0.232544,0.52537 0.232544,0.18087 1.093818,0.36174 0.473701,0.0947 1.016303,0.18948 0.551215,0.0861 1.102431,0.22393 1.223009,0.31867 1.808675,1.00769 0.585666,0.68041 0.585666,1.70532 z" />
      <path
         inkscape:connector-curvature="0"
         id="path4621"
         style="font-style:normal;font-variant:normal;font-weight:bold;font-stretch:normal;font-size:17.63888931px;line-height:1.25;font-family:sans-serif;-inkscape-font-specification:'sans-serif, Bold';font-variant-ligatures:normal;font-variant-caps:normal;font-variant-numeric:normal;font-feature-settings:normal;text-align:start;letter-spacing:0px;word-spacing:0px;writing-mode:lr-tb;text-anchor:start;fill:#ffffff;fill-opacity:0.39320388;stroke:none;stroke-width:0.26458332"
         d="M -0.71450948,137.77506 H -3.832321 v -4.7973 q 0,-0.58566 -0.060289,-1.16272 -0.060289,-0.58566 -0.2067058,-0.86127 -0.1722548,-0.31867 -0.5081516,-0.46509 -0.3272841,-0.14641 -0.921563,-0.14641 -0.4220242,0 -0.8612739,0.1378 -0.430637,0.1378 -0.9387886,0.43925 v 6.85574 h -3.1005861 v -13.40142 h 3.1005861 v 4.79729 q 0.826823,-0.64595 1.584744,-0.99046 0.7665338,-0.34451 1.6967096,-0.34451 1.5675184,0 2.4460178,0.91295 0.88711212,0.91295 0.88711212,2.73024 z" />
      <path
         inkscape:connector-curvature="0"
         id="path4623"
         style="font-style:normal;font-variant:normal;font-weight:bold;font-stretch:normal;font-size:17.63888931px;line-height:1.25;font-family:sans-serif;-inkscape-font-specification:'sans-serif, Bold';font-variant-ligatures:normal;font-variant-caps:normal;font-variant-numeric:normal;font-feature-settings:normal;text-align:start;letter-spacing:0px;word-spacing:0px;writing-mode:lr-tb;text-anchor:start;fill:#ffffff;fill-opacity:0.39320388;stroke:none;stroke-width:0.26458332"
         d="m 8.0015837,135.25153 v -2.01538 q -0.6287299,0.0517 -1.3608128,0.14641 -0.7320828,0.0861 -1.1110433,0.20671 -0.4650879,0.14641 -0.7148573,0.43063 -0.2411567,0.27561 -0.2411567,0.73209 0,0.30144 0.051676,0.49092 0.051676,0.18948 0.2583822,0.36174 0.198093,0.17225 0.4737007,0.25838 0.2756076,0.0775 0.8612738,0.0775 0.4650879,0 0.9387886,-0.18948 0.4823134,-0.18948 0.8440484,-0.49954 z m 0,1.49861 q -0.2497694,0.18948 -0.6201172,0.45648 -0.3703478,0.26699 -0.6976319,0.42202 -0.4564751,0.20671 -0.9474012,0.30145 -0.4909262,0.10335 -1.0765924,0.10335 -1.3780382,0 -2.308214,-0.85266 -0.9301758,-0.85266 -0.9301758,-2.17902 0,-1.05937 0.4737006,-1.73116 0.4737006,-0.6718 1.3435873,-1.05937 0.8612739,-0.38757 2.1359592,-0.55122 1.2746854,-0.16364 2.6441109,-0.24115 v -0.0517 q 0,-0.80098 -0.6545682,-1.10243 -0.6545681,-0.31006 -1.9292535,-0.31006 -0.7665338,0 -1.6364204,0.27561 -0.8698866,0.26699 -1.2488471,0.41341 H 2.2654996 v -2.33405 q 0.4909261,-0.12919 1.5933567,-0.30145 1.1110433,-0.18086 2.2220866,-0.18086 2.6441109,0 3.8154434,0.81821 1.1799447,0.80959 1.1799447,2.54937 v 6.58013 H 8.0015837 Z" />
    </g>
    <g
       id="g4735"
       transform="matrix(0.58592699,0,0,1,1.7664995,-0.2269766)"
       style="stroke-width:1.30640626">
      <rect
         y="143.54167"
         x="5.5562458"
         height="0.79374999"
         width="12.435416"
         id="rect4455"
         style="opacity:1;fill:#ff0000;fill-opacity:1;stroke:none;stroke-width:0.65320313;stroke-miterlimit:4;stroke-dasharray:none;stroke-opacity:1" />
      <circle
         r="1.0583333"
         cy="143.93855"
         cx="17.991676"
         id="path4731"
         style="opacity:1;fill:#ff0000;fill-opacity:1;stroke:none;stroke-width:0.65320313;stroke-miterlimit:4;stroke-dasharray:none;stroke-opacity:1" />
    </g>
  </g>
</svg>
