<?xml version="1.0" encoding="UTF-8" standalone="no"?>
<!-- Created with Inkscape (http://www.inkscape.org/) -->

<svg
   xmlns:dc="http://purl.org/dc/elements/1.1/"
   xmlns:cc="http://creativecommons.org/ns#"
   xmlns:rdf="http://www.w3.org/1999/02/22-rdf-syntax-ns#"
   xmlns:svg="http://www.w3.org/2000/svg"
   xmlns="http://www.w3.org/2000/svg"
   xmlns:sodipodi="http://sodipodi.sourceforge.net/DTD/sodipodi-0.dtd"
   xmlns:inkscape="http://www.inkscape.org/namespaces/inkscape"
   width="210mm"
   height="297mm"
   viewBox="0 0 210 297"
   version="1.1"
   id="svg8"
   inkscape:version="0.92.3 (2405546, 2018-03-11)"
   sodipodi:docname="Logo12_7.svg">
  <sodipodi:namedview
     id="base"
     pagecolor="#ffffff"
     bordercolor="#666666"
     borderopacity="1.0"
     inkscape:pageopacity="0.0"
     inkscape:pageshadow="2"
     inkscape:zoom="0.49497475"
     inkscape:cx="87.773909"
     inkscape:cy="779.56867"
     inkscape:document-units="mm"
     inkscape:current-layer="layer1"
     showgrid="false"
     showborder="false"
     inkscape:object-nodes="false"
     inkscape:window-width="1366"
     inkscape:window-height="705"
     inkscape:window-x="-8"
     inkscape:window-y="-8"
     inkscape:window-maximized="1" />
  <defs
     id="defs2" />
  <metadata
     id="metadata5">
    <rdf:RDF>
      <cc:Work
         rdf:about="">
        <dc:format>image/svg+xml</dc:format>
        <dc:type
           rdf:resource="http://purl.org/dc/dcmitype/StillImage" />
        <dc:title></dc:title>
      </cc:Work>
    </rdf:RDF>
  </metadata>
  <g
     inkscape:label="Layer 1"
     inkscape:groupmode="layer"
     id="layer1">
    <path
       style="opacity:1;fill:#000000;fill-opacity:1;stroke:none;stroke-width:10.00000095;stroke-miterlimit:4;stroke-dasharray:none;stroke-opacity:1"
       d="M 87.804688 175.66797 L -70.349609 266.97852 C -97.48607 262.45218 -126.21752 259.66852 -157.14258 259.7793 C -175.49719 259.84502 -194.5692 260.94486 -214.42188 263.26953 L -228.92969 264.96875 L -228.92969 479.96094 L -208.44727 477.57031 C -191.02511 475.53863 -174.41332 474.56742 -158.4375 474.45898 L -158.43555 474.45898 L -158.43359 474.45898 C -156.02085 474.44009 -153.6105 474.44607 -151.19922 474.46875 C -137.25969 474.60085 -123.76638 475.40262 -110.61523 476.72461 L -110.61523 519.33984 L 87.804688 633.89648 L 233.50195 549.77734 C 237.17203 549.79888 240.86818 549.77368 244.5957 549.69336 C 290.46482 548.70498 340.23717 539.70157 395.57812 518.8125 L 404.53711 515.43359 L 404.53711 297.45312 L 378.50586 307.25391 C 344.86022 319.91498 314.46718 327.53137 286.22266 331.53125 C 277.95181 332.70253 269.86435 333.56527 261.9375 334.14648 C 258.38507 334.40696 254.85448 334.63119 251.36328 334.7832 L 251.36328 310.35156 L 238.50586 302.92773 L 238.50586 335.11328 C 231.09371 335.16808 223.79146 334.98194 216.57422 334.59375 C 218.63999 334.70647 220.71144 334.8046 222.79297 334.88086 L 222.79297 293.85547 L 209.93555 286.43359 L 209.93555 334.17578 C 211.94396 334.32006 213.95972 334.44699 215.98047 334.56055 C 213.95878 334.44852 211.944 334.32007 209.93555 334.17578 C 200.28124 333.4822 190.77425 332.42389 181.36719 331.05664 C 176.10147 330.2913 170.86624 329.42983 165.6543 328.48242 C 164.24493 328.22623 162.83982 327.95213 161.43359 327.68359 C 162.83973 327.95296 164.245 328.22625 165.6543 328.48242 L 165.6543 260.86719 L 152.79883 253.44531 L 152.79883 325.96289 C 154.25523 326.26705 155.71479 326.55699 157.17383 326.84961 C 155.71489 326.55791 154.25511 326.26703 152.79883 325.96289 C 147.54865 324.86639 142.31287 323.6916 137.08594 322.44727 L 137.08594 244.37305 L 124.22852 236.94922 L 124.22852 319.25586 C 118.9949 317.90318 113.76024 316.48889 108.51758 315.02734 C 104.27358 313.8442 100.02222 312.63412 95.761719 311.39258 C 100.02205 312.63397 104.27378 313.84427 108.51758 315.02734 L 108.51758 227.87891 L 95.660156 220.45508 L 95.660156 311.36328 C 92.954119 310.57449 90.247092 309.77919 87.53125 308.9707 C 85.011541 308.2206 82.476309 307.4465 79.947266 306.68164 C 75.693036 305.39503 71.421269 304.09627 67.134766 302.7793 C 71.421224 304.09621 75.693101 305.39505 79.947266 306.68164 L 79.947266 220.45703 L 67.089844 227.87891 L 67.089844 302.76562 C 61.882215 301.1656 56.646215 299.555 51.378906 297.93359 L 51.378906 236.95117 L 38.521484 244.37305 L 38.521484 294.00195 C 33.322931 292.42053 28.086588 290.85089 22.808594 289.29297 L 22.808594 253.44531 L 9.953125 260.86719 L 9.953125 285.57227 C 10.082219 285.60898 10.208843 285.64686 10.337891 285.68359 C 5.014382 284.16783 -0.3359496 282.66726 -5.7597656 281.2168 L -5.7597656 269.93945 L -18.617188 277.36328 L -18.617188 277.87891 C -23.756876 276.58926 -28.949973 275.34355 -34.195312 274.14648 L 87.804688 203.71094 L 261.9375 304.24609 L 261.9375 334.14648 C 269.86435 333.56527 277.95181 332.70253 286.22266 331.53125 L 286.22266 290.22461 L 87.804688 175.66797 z M 181.36719 331.05664 C 185.63144 331.6764 189.915 332.2327 194.22461 332.7207 L 194.22461 277.36133 L 181.36719 269.93945 L 181.36719 331.05664 z M -157.08789 266.52344 C -62.892392 266.186 10.874566 293.52268 83.492188 315.14062 C 135.12267 330.51075 186.04568 343.02834 243.82812 341.7832 C 285.50927 340.88501 330.99574 332.85692 383.37891 313.14453 L 383.38086 313.14258 L 394.53711 308.94336 L 394.53711 511.47656 L 390.69531 512.92578 C 336.51217 533.37779 288.44355 541.99945 244.27539 542.95117 C 183.23669 544.26652 130.01182 531.03548 77.845703 515.50586 C 6.104888 494.14896 -63.781388 468.54973 -151.05859 467.72266 C -153.54461 467.69998 -156.03935 467.69582 -158.53906 467.71094 L -158.54297 467.71094 C -175.04958 467.82319 -192.20542 468.82919 -210.15039 470.92188 L -218.92969 471.94727 L -218.92969 270.64453 L -212.71094 269.91406 C -193.39782 267.65257 -174.88722 266.58719 -157.08789 266.52344 z M -61.470703 268.5332 C -61.159394 268.59007 -60.849958 268.64973 -60.539062 268.70703 C -60.849901 268.6497 -61.15945 268.5901 -61.470703 268.5332 z M -52.666016 270.21094 C -52.258862 270.29154 -51.85177 270.37181 -51.445312 270.45312 C -51.851721 270.37176 -52.258912 270.29159 -52.666016 270.21094 z M -157.04883 271.58203 C -174.43149 271.64428 -192.51954 272.68608 -211.42969 274.90039 L -211.42969 278.99414 C -203.14736 278.02431 -195.03141 277.29201 -187.05469 276.75586 L -187.05469 289.76367 C -195.03141 290.29982 -203.14736 291.03017 -211.42969 292 L -211.42969 296.0957 C -192.51954 293.8814 -174.43149 292.83959 -157.04883 292.77734 C -65.038599 292.44777 7.4627809 319.2299 80.466797 340.96289 C 132.38076 356.41738 184.53821 369.31786 244.06445 368.03516 C 287.01474 367.10961 333.78614 358.79212 387.03516 338.75391 L 387.03516 334.66016 C 378.75674 337.77542 370.63544 340.60693 362.66016 343.17188 L 362.66016 330.16602 C 370.63544 327.60107 378.75674 324.76761 387.03516 321.65234 L 387.03516 317.55859 C 333.78614 337.59682 287.01474 345.91429 244.06445 346.83984 C 184.53821 348.12255 132.38076 335.2221 80.466797 319.76758 C 7.4627809 298.03461 -65.038599 271.25244 -157.04883 271.58203 z M -43.464844 272.10352 C -43.256102 272.14806 -43.046452 272.19161 -42.837891 272.23633 C -43.046461 272.19159 -43.256094 272.14808 -43.464844 272.10352 z M -157.04883 275.67578 C -149.43974 275.64857 -141.96685 275.81133 -134.61328 276.13672 L -134.61328 289.14453 C -141.96685 288.81915 -149.43974 288.65438 -157.04883 288.68164 C -158.60964 288.68693 -160.18359 288.71073 -161.75586 288.73242 L -161.75586 275.72656 C -160.18359 275.70502 -158.60964 275.68137 -157.04883 275.67578 z M -109.31445 277.93359 C -100.08927 278.83399 -91.052752 279.98644 -82.171875 281.3418 L -82.171875 294.34766 C -91.052752 292.99229 -100.08927 291.83984 -109.31445 290.93945 L -109.31445 277.93359 z M -13.419922 279.20508 C -12.930333 279.3315 -12.437905 279.45686 -11.949219 279.58398 C -12.438199 279.45697 -12.93005 279.3314 -13.419922 279.20508 z M -56.873047 285.81445 C -47.681962 287.65186 -38.642234 289.6758 -29.730469 291.84961 L -29.730469 304.85742 C -38.642234 302.68361 -47.681962 300.65771 -56.873047 298.82031 L -56.873047 285.81445 z M -4.4316406 298.44922 C 4.7106325 300.97498 13.743184 303.6109 22.710938 306.29297 L 22.710938 319.29883 C 13.743184 316.61677 4.7106325 313.98279 -4.4316406 311.45703 L -4.4316406 298.44922 z M -130.70312 303.11328 L -151.48242 431.74219 L -132.74414 433.30469 L -129.21875 409.94727 L -104.17383 412.03711 L -100.64844 435.98047 L -80.054688 437.69922 L -100.83398 305.61328 L -130.70312 303.11328 z M 48.009766 313.98242 C 57.080431 316.7698 66.121033 319.54216 75.154297 322.25977 L 75.154297 335.26562 C 66.121033 332.54803 57.080431 329.77566 48.009766 326.98828 L 48.009766 313.98242 z M -50.498047 314.29297 C -64.160476 314.26273 -71.152344 323.68835 -71.152344 340.89062 C -71.152344 377.29748 -32.757812 390.75165 -32.757812 416.96094 C -32.757812 426.0614 -36.687412 428.46335 -42.9375 427.07422 C -49.187591 425.68505 -53.115234 421.5347 -53.115234 412.43359 L -53.115234 403.33398 L -71.6875 399.20312 L -71.6875 407.0332 C -71.6875 427.42107 -61.686379 441.2929 -42.400391 445.57812 C -23.114398 449.86332 -13.115234 440.43626 -13.115234 420.05273 C -13.115234 383.65347 -51.507812 370.19941 -51.507812 343.98828 C -51.507812 334.88725 -47.937584 332.22398 -41.6875 333.61523 C -35.437408 335.0065 -31.865234 339.25899 -31.865234 348.35938 L -31.865234 353.63867 L -13.292969 357.76953 L -13.292969 353.76758 C -13.292969 333.38398 -23.11524 319.54948 -42.222656 315.29492 C -45.208188 314.63015 -47.967967 314.29859 -50.498047 314.29297 z M 124.25 319.26172 C 125.78596 319.65864 127.32299 320.04397 128.85938 320.42969 C 127.32301 320.0433 125.78615 319.6587 124.25 319.26172 z M 132.08008 321.23047 C 133.73618 321.63777 135.39179 322.04293 137.04883 322.4375 C 135.39218 322.04301 133.73556 321.63837 132.08008 321.23047 z M -4.7480469 324.04297 L -4.7480469 454.35156 L 15.015625 460.21875 L 15.015625 411.26172 L 24.357422 414.03516 C 44.12041 419.90386 53.822266 411.43245 53.822266 390.58594 L 53.822266 373.64648 C 53.822266 352.79996 44.12041 338.56371 24.357422 332.69141 L -4.7480469 324.04297 z M -116.78906 327.37109 L -106.95508 394.11523 L -126.62109 392.47266 L -116.78906 327.37109 z M 100.45312 329.65039 C 109.45319 332.17437 118.48987 334.57623 127.5957 336.79883 L 127.5957 349.80469 C 118.48987 347.58209 109.45319 345.18023 100.45312 342.65625 L 100.45312 329.65039 z M 251.32617 334.78516 C 248.70459 334.89903 246.09727 334.98521 243.50781 335.04102 C 246.09711 334.98521 248.70473 334.89905 251.32617 334.78516 z M 337.36133 337.54492 L 337.36133 350.55273 C 328.12294 352.97103 319.08058 355.02703 310.21875 356.75 L 310.21875 343.74414 C 319.08058 342.02117 328.12294 339.96322 337.36133 337.54492 z M 152.89453 342.41797 C 161.83396 344.19289 170.86929 345.75278 180.03711 347.03516 L 180.03711 360.04102 C 170.86929 358.75863 161.83396 357.19875 152.89453 355.42383 L 152.89453 342.41797 z M 62.189453 344.00977 L 62.189453 474.29883 L 86.476562 481.60352 L 86.476562 351.30859 L 62.189453 344.00977 z M 284.91992 347.8457 L 284.91992 360.85352 C 275.68878 362.04698 266.64961 362.87765 257.77734 363.39062 L 257.77734 350.38477 C 266.64963 349.87179 275.68876 349.03916 284.91992 347.8457 z M 15.015625 348.53125 L 24.357422 351.30664 C 30.645646 353.17484 34.058594 357.16575 34.058594 366.47266 L 34.058594 386.01758 C 34.058594 395.32448 30.645646 397.28942 24.357422 395.42188 L 15.015625 392.64648 L 15.015625 348.53125 z M 205.33594 349.80859 C 214.23148 350.50881 223.26961 350.9217 232.47852 351.00391 L 232.47852 364.00977 C 223.26961 363.92756 214.23148 363.51467 205.33594 362.81445 L 205.33594 349.80859 z M 94.84375 353.73242 L 94.84375 484.0293 L 114.60156 488.87305 L 114.60156 435.81836 L 121.42578 437.49023 C 130.40644 439.68965 134.35937 445.12554 134.35938 457.22656 L 134.35938 477.70703 C 134.35938 488.31866 135.07662 490.54106 136.1543 494.15625 L 156.27148 499.08789 C 154.29574 493.7628 154.11523 489.06463 154.11523 482.73438 L 154.11523 462.625 C 154.11523 449.03355 150.88264 438.37497 141.00391 431.67383 C 149.80495 429.54671 153.93555 421.80761 153.93555 408.40234 L 153.93555 398.16211 C 153.93555 378.05419 145.13606 366.03354 124.66016 361.02539 L 94.84375 353.73242 z M 303.5 370.06641 C 301.27752 370.06149 298.90132 370.25525 296.37305 370.65625 C 276.14684 373.86408 265.66016 387.17969 265.66016 407.57031 L 265.66016 473.83984 C 265.66016 494.23039 276.14684 504.21066 296.37305 500.99023 C 316.59925 497.76981 327.08789 484.45298 327.08789 464.06836 L 327.08789 423.66406 L 298.24609 428.24609 L 298.24609 446.44727 L 307.61133 444.95898 L 307.61133 468.44141 C 307.61133 477.54251 303.49032 481.4745 296.93555 482.51758 C 290.38075 483.56065 286.26172 480.93802 286.26172 471.83594 L 286.26172 403.02539 C 286.26172 393.92338 290.38075 389.81161 296.93555 388.77148 C 303.49032 387.73136 307.61133 390.53562 307.61133 399.63672 L 307.61133 413.28711 L 327.08789 410.19531 L 327.08789 397.81836 C 327.08789 379.98182 319.05738 370.10732 303.5 370.06641 z M 164.63867 370.29492 L 164.63867 500.62891 L 186.06836 503.85938 L 186.06836 373.51172 L 164.63867 370.29492 z M 194.43555 374.48047 L 194.43555 504.83008 L 212.26562 505.29102 L 212.26562 410.87891 L 236.94141 505.92578 L 257.29297 506.44922 L 257.29297 376.09375 L 239.64258 375.64062 L 239.64258 453.66797 L 219.29102 375.11914 L 194.43555 374.48047 z M 114.60156 377.18164 L 124.12109 379.50977 C 131.12601 381.22359 134.17969 386.06659 134.17969 395.375 L 134.17969 408.2207 C 134.17969 418.64619 129.68836 420.8967 122.32422 419.09375 L 114.60156 417.20312 L 114.60156 377.18164 z M -157.04883 443.31055 C -174.43149 443.37253 -192.51954 444.41459 -211.42969 446.62891 L -211.42969 450.72266 C -203.14736 449.75283 -195.03141 449.02054 -187.05469 448.48438 L -187.05469 461.49023 C -195.03141 462.0264 -203.14736 462.75869 -211.42969 463.72852 L -211.42969 467.82422 C -192.51954 465.60991 -174.43149 464.56815 -157.04883 464.50586 C -65.038599 464.17628 7.4627809 490.9584 80.466797 512.69141 C 132.38076 528.14589 184.53821 541.04641 244.06445 539.76367 C 287.01474 538.83814 333.78614 530.52065 387.03516 510.48242 L 387.03516 506.38867 C 378.75674 509.50391 370.63544 512.33545 362.66016 514.90039 L 362.66016 501.89258 C 370.63544 499.32764 378.75674 496.4961 387.03516 493.38086 L 387.03516 489.28711 C 333.78614 509.32533 287.01474 517.64279 244.06445 518.56836 C 184.53821 519.85106 132.38076 506.94867 80.466797 491.49414 C 7.4627809 469.76118 -65.038599 442.98093 -157.04883 443.31055 z M -157.04883 447.4043 C -149.43974 447.37784 -141.96685 447.53985 -134.61328 447.86523 L -134.61328 460.87109 C -141.96685 460.54568 -149.43974 460.38287 -157.04883 460.41016 C -158.60964 460.41394 -160.18359 460.44128 -161.75586 460.46094 L -161.75586 447.45508 C -160.18359 447.43618 -158.60964 447.40997 -157.04883 447.4043 z M -109.31445 449.66211 C -100.08927 450.56251 -91.052752 451.71494 -82.171875 453.07031 L -82.171875 466.07617 C -91.052752 464.72083 -100.08927 463.56837 -109.31445 462.66797 L -109.31445 449.66211 z M -56.873047 457.54102 C -47.681962 459.37843 -38.642234 461.40429 -29.730469 463.57812 L -29.730469 476.58594 C -38.642234 474.41214 -47.681962 472.38625 -56.873047 470.54883 L -56.873047 457.54102 z M -4.4316406 470.17773 C 4.7106325 472.70348 13.743184 475.33942 22.710938 478.02148 L 22.710938 491.02734 C 13.743184 488.34528 4.7106325 485.70938 -4.4316406 483.18359 L -4.4316406 470.17773 z M -109.95898 476.79297 C -104.01552 477.39897 -98.14157 478.11002 -92.332031 478.92188 C -90.383038 479.19424 -88.442985 479.47963 -86.507812 479.77344 C -88.442612 479.47968 -90.383521 479.19425 -92.332031 478.92188 C -98.141339 478.10981 -104.01547 477.39903 -109.95898 476.79297 z M -86.330078 479.79883 C -82.785376 480.3383 -79.257228 480.90446 -75.755859 481.51172 L -75.755859 499.21289 L -62.898438 506.63672 L -62.898438 483.90234 C -57.620411 484.94703 -52.384927 486.06038 -47.185547 487.23242 L -47.185547 515.70703 L -34.328125 523.13086 L -34.328125 490.25977 C -29.061383 491.55292 -23.828169 492.90297 -18.617188 494.29297 C -14.316504 495.44015 -10.031687 496.61788 -5.7597656 497.81836 C -0.50547329 499.2949 4.7282818 500.81175 9.953125 502.34961 C 14.243204 503.61233 18.528847 504.88675 22.808594 506.17773 C 28.046974 507.75789 33.284278 509.35224 38.521484 510.95508 L 38.521484 565.18945 L 51.378906 572.61328 L 51.378906 514.88672 C 56.602126 516.48448 61.839476 518.0749 67.089844 519.65625 L 67.089844 581.68359 L 79.947266 589.10547 L 79.947266 523.48438 C 85.157905 525.01338 90.393244 526.51722 95.660156 527.98633 L 95.660156 589.10742 L 108.51758 581.68359 L 108.51758 531.4707 C 113.72088 532.84163 118.95103 534.17936 124.22852 535.44922 L 124.22852 572.61328 L 137.08594 565.18945 L 137.08594 538.38867 C 142.28274 539.52712 147.51314 540.61658 152.79883 541.61914 L 152.79883 556.11914 L 165.6543 548.69727 L 165.6543 543.89648 C 173.47283 545.17504 181.40377 546.27065 189.45508 547.16602 L 87.804688 605.85352 L -86.330078 505.31836 L -86.330078 479.79883 z M 22.808594 506.17773 C 18.528847 504.88674 14.243204 503.61234 9.953125 502.34961 L 9.953125 548.69531 L 22.808594 556.11719 L 22.808594 506.17773 z M -5.7597656 497.81836 C -10.031687 496.61787 -14.316504 495.44016 -18.617188 494.29297 L -18.617188 532.20117 L -5.7597656 539.625 L -5.7597656 497.81836 z M -69.304688 482.67188 C -67.473501 483.01234 -65.650724 483.36541 -63.830078 483.72266 C -65.650706 483.36533 -67.473659 483.01263 -69.304688 482.67188 z M 48.009766 485.71094 C 57.080431 488.4983 66.121033 491.26873 75.154297 493.98633 L 75.154297 506.99414 C 66.121033 504.27651 57.080431 501.50416 48.009766 498.7168 L 48.009766 485.71094 z M -44.289062 487.89844 C -43.120994 488.16727 -41.949796 488.43055 -40.785156 488.70508 C -41.950098 488.43085 -43.120737 488.16708 -44.289062 487.89844 z M 100.45312 501.37891 C 109.45319 503.90291 118.48987 506.30475 127.5957 508.52734 L 127.5957 521.5332 C 118.48987 519.31061 109.45319 516.90873 100.45312 514.38477 L 100.45312 501.37891 z M 337.36133 509.27344 L 337.36133 522.2793 C 328.12294 524.69759 319.08058 526.75554 310.21875 528.47852 L 310.21875 515.47266 C 319.08058 513.74972 328.12294 511.69177 337.36133 509.27344 z M 152.89453 514.14648 C 161.83396 515.92139 170.86929 517.48128 180.03711 518.76367 L 180.03711 531.76953 C 170.86929 530.48714 161.83396 528.92725 152.89453 527.15234 L 152.89453 514.14648 z M 284.91992 519.57422 L 284.91992 532.58008 C 275.68878 533.77358 266.64961 534.60618 257.77734 535.11914 L 257.77734 522.11328 C 266.64963 521.60032 275.68876 520.76764 284.91992 519.57422 z M 205.33594 521.53516 C 214.23148 522.23539 223.26961 522.65022 232.47852 522.73242 L 232.47852 535.73828 C 223.26961 535.65627 214.23148 535.2432 205.33594 534.54297 L 205.33594 521.53516 z M 126.02539 535.86719 C 127.81901 536.29364 129.61872 536.71037 131.42188 537.12305 C 129.61698 536.71336 127.8198 536.29216 126.02539 535.86719 z M 158.93359 542.74609 C 159.0671 542.76978 159.20041 542.79282 159.33398 542.81641 C 159.20044 542.79271 159.06708 542.76989 158.93359 542.74609 z "
       transform="scale(0.26458333)"
       id="path1301" />
  </g>
</svg>
