<?xml version="1.0" encoding="UTF-8" standalone="no"?>
<!-- Created with Inkscape (http://www.inkscape.org/) -->

<svg
   xmlns:dc="http://purl.org/dc/elements/1.1/"
   xmlns:cc="http://creativecommons.org/ns#"
   xmlns:rdf="http://www.w3.org/1999/02/22-rdf-syntax-ns#"
   xmlns:svg="http://www.w3.org/2000/svg"
   xmlns="http://www.w3.org/2000/svg"
   xmlns:xlink="http://www.w3.org/1999/xlink"
   xmlns:sodipodi="http://sodipodi.sourceforge.net/DTD/sodipodi-0.dtd"
   xmlns:inkscape="http://www.inkscape.org/namespaces/inkscape"
   width="210mm"
   height="297mm"
   viewBox="0 0 210 297"
   version="1.1"
   id="svg8"
   inkscape:version="0.92.3 (2405546, 2018-03-11)"
   sodipodi:docname="trial.svg">
  <sodipodi:namedview
     id="base"
     pagecolor="#ffffff"
     bordercolor="#666666"
     borderopacity="1.0"
     inkscape:pageopacity="0.0"
     inkscape:pageshadow="2"
     inkscape:zoom="1.4142136"
     inkscape:cx="-160.63756"
     inkscape:cy="1785.2728"
     inkscape:document-units="mm"
     inkscape:current-layer="layer1"
     showgrid="false"
     showborder="false"
     inkscape:object-nodes="false"
     inkscape:window-width="1366"
     inkscape:window-height="705"
     inkscape:window-x="-8"
     inkscape:window-y="-8"
     inkscape:window-maximized="1"
     inkscape:snap-nodes="true" />
  <defs
     id="defs2">
    <linearGradient
       inkscape:collect="always"
       id="linearGradient2628">
      <stop
         style="stop-color:#000000;stop-opacity:1;"
         offset="0"
         id="stop2624" />
      <stop
         style="stop-color:#000000;stop-opacity:0;"
         offset="1"
         id="stop2626" />
    </linearGradient>
    <linearGradient
       inkscape:collect="always"
       id="linearGradient2165">
      <stop
         style="stop-color:#000000;stop-opacity:1;"
         offset="0"
         id="stop2161" />
      <stop
         style="stop-color:#000000;stop-opacity:0;"
         offset="1"
         id="stop2163" />
    </linearGradient>
    <linearGradient
       id="linearGradient961"
       inkscape:collect="always">
      <stop
         id="stop957"
         offset="0"
         style="stop-color:#000000;stop-opacity:1" />
      <stop
         id="stop959"
         offset="1"
         style="stop-color:#000000;stop-opacity:0;" />
    </linearGradient>
    <linearGradient
       gradientTransform="matrix(1.5315592,0,0,1.5315592,1546.7134,283.44212)"
       gradientUnits="userSpaceOnUse"
       y2="148.1525"
       x2="-42.21209"
       y1="118.14907"
       x1="-74.722153"
       id="linearGradient963"
       xlink:href="#linearGradient961"
       inkscape:collect="always" />
    <linearGradient
       inkscape:collect="always"
       xlink:href="#linearGradient961"
       id="linearGradient2081"
       gradientUnits="userSpaceOnUse"
       gradientTransform="matrix(1.5315592,0,0,1.5315592,1546.7134,283.44212)"
       x1="-74.722153"
       y1="118.14907"
       x2="-42.21209"
       y2="148.1525" />
    <linearGradient
       inkscape:collect="always"
       xlink:href="#linearGradient961"
       id="linearGradient2083"
       gradientUnits="userSpaceOnUse"
       gradientTransform="matrix(1.5315592,0,0,1.5315592,1546.7134,283.44212)"
       x1="-74.722153"
       y1="118.14907"
       x2="-42.21209"
       y2="148.1525" />
    <linearGradient
       inkscape:collect="always"
       xlink:href="#linearGradient2165"
       id="linearGradient2167"
       x1="-20.902086"
       y1="-161.25833"
       x2="41.275002"
       y2="-346.20209"
       gradientUnits="userSpaceOnUse" />
    <linearGradient
       inkscape:collect="always"
       xlink:href="#linearGradient2628"
       id="linearGradient2630"
       x1="1107.4636"
       y1="490.27029"
       x2="1129.7639"
       y2="452.43488"
       gradientUnits="userSpaceOnUse" />
  </defs>
  <metadata
     id="metadata5">
    <rdf:RDF>
      <cc:Work
         rdf:about="">
        <dc:format>image/svg+xml</dc:format>
        <dc:type
           rdf:resource="http://purl.org/dc/dcmitype/StillImage" />
        <dc:title></dc:title>
      </cc:Work>
    </rdf:RDF>
  </metadata>
  <g
     inkscape:groupmode="layer"
     id="layer2"
     inkscape:label="Back" />
  <g
     inkscape:label="Layer 1"
     inkscape:groupmode="layer"
     id="layer1">
    <rect
       style="opacity:1;fill:#de8787;fill-opacity:1;stroke:none;stroke-width:2.64583325;stroke-miterlimit:4;stroke-dasharray:none;stroke-dashoffset:0;stroke-opacity:1;paint-order:fill markers stroke"
       id="rect2299"
       width="55.959373"
       height="20.703646"
       x="-40.348957"
       y="127.1375" />
    <rect
       style="opacity:1;fill:url(#linearGradient2167);fill-opacity:1;stroke:none;stroke-width:2.64583325;stroke-miterlimit:4;stroke-dasharray:none;stroke-dashoffset:0;stroke-opacity:1;paint-order:fill markers stroke"
       id="rect2159"
       width="136.26042"
       height="82.549995"
       x="-101.86458"
       y="-212.85207" />
    <g
       id="g1916"
       transform="matrix(0.45906598,0,0,0.45906598,39.523456,-192.29426)"
       style="stroke-width:2.17833614;fill:#ffaaaa">
      <path
         inkscape:connector-curvature="0"
         id="path1908"
         d="m -232.73463,-8.947774 c -5.13227,0.016538 -10.46622,0.2930067 -16.01969,0.8748818 h -0.0243 l -0.0667,0.00723 -5.89577,0.6237346 V 52.793159 l 7.58197,-0.795817 c 4.88848,-0.512881 9.55337,-0.759537 14.03997,-0.787548 h 0.0134 0.004 c 0.67981,-0.0037 1.35946,-0.0019 2.03812,0.0036 23.74848,0.20247 42.86969,6.482728 63.20855,11.93002 14.79429,3.962307 30.27056,7.444753 48.08853,7.09931 12.89718,-0.250023 26.920025,-2.524916 42.571047,-7.839831 l 4.221964,-1.433505 V -0.04134115 l -9.253183,3.13210865 c -14.321192,4.8485123 -26.593648,6.7840126 -37.845748,7.0021565 -15.59456,0.302327 -29.40982,-2.729531 -43.79991,-6.5835775 -20.23027,-5.418211 -41.55571,-12.5433189 -68.85213,-12.4571205 h -5.2e-4 c 0.006,-2.09e-5 0.002,-2.81e-5 -0.009,0 z m 0.008,2.6458333 h 5.2e-4 c -0.002,8.2e-6 -0.001,3.94e-5 0.0103,0 26.83137,-0.084638 47.81941,6.91967552 68.15914,12.3672034 14.46373,3.873768 28.56798,6.9830573 44.53578,6.6734943 11.5188,-0.223314 24.088648,-2.214367 38.642605,-7.1416827 l 5.758822,-1.9492351 V 59.073912 l -2.426726,0.823724 c -15.413313,5.234194 -29.148291,7.454548 -41.772121,7.699272 -17.44395,0.33819 -32.62975,-3.066203 -47.35267,-7.009392 -20.24685,-5.422654 -39.66754,-11.813601 -63.87,-12.019938 h -5.2e-4 c -0.68649,-0.0056 -1.37613,-0.0073 -2.06757,-0.0036 h -0.0139 -0.004 c -4.57467,0.02829 -9.32999,0.279778 -14.30765,0.802018 l -4.66018,0.488857 V -5.0617064 l 3.45612,-0.3653525 h 0.002 l 0.0692,-0.00723 c 5.49726,-0.5791227 10.76947,-0.8512868 15.84141,-0.8676473 z"
         style="color:#000000;font-style:normal;font-variant:normal;font-weight:normal;font-stretch:normal;font-size:medium;line-height:normal;font-family:sans-serif;font-variant-ligatures:normal;font-variant-position:normal;font-variant-caps:normal;font-variant-numeric:normal;font-variant-alternates:normal;font-feature-settings:normal;text-indent:0;text-align:start;text-decoration:none;text-decoration-line:none;text-decoration-style:solid;text-decoration-color:#000000;letter-spacing:normal;word-spacing:normal;text-transform:none;writing-mode:lr-tb;direction:ltr;text-orientation:mixed;dominant-baseline:auto;baseline-shift:baseline;text-anchor:start;white-space:normal;shape-padding:0;clip-rule:nonzero;display:inline;overflow:visible;visibility:visible;opacity:1;isolation:auto;mix-blend-mode:normal;color-interpolation:sRGB;color-interpolation-filters:linearRGB;solid-color:#000000;solid-opacity:1;vector-effect:none;fill:#ffaaaa;fill-opacity:1;fill-rule:nonzero;stroke:none;stroke-width:5.76351404;stroke-linecap:butt;stroke-linejoin:miter;stroke-miterlimit:4;stroke-dasharray:none;stroke-dashoffset:0;stroke-opacity:1;paint-order:fill markers stroke;color-rendering:auto;image-rendering:auto;shape-rendering:auto;text-rendering:auto;enable-background:accumulate" />
      <path
         id="path1847"
         transform="scale(0.26458333)"
         d="m -879.57227,-16.320312 c -18.91702,0.06095 -38.58933,1.079834 -59.11523,3.242187 l -6.60938,0.699219 v 3.535156 l 6.60938,-0.6992188 c 3.54903,-0.3738812 7.064,-0.6993892 10.5625,-1.0058592 v 21.21289 c -3.4985,0.30647 -7.01347,0.631979 -10.5625,1.00586 l -6.60938,0.699219 v 3.537109 l 6.60938,-0.699219 c 20.5259,-2.162353 40.19821,-3.181232 59.11523,-3.242187 100.11058,-0.322647 178.50979,25.816052 255.6875,46.486328 54.8727,14.696353 108.99337,26.665164 170.4043,25.474609 44.2986,-0.858814 92.64182,-8.534554 148.31445,-27.382812 l 0.002,-0.002 11.85547,-4.015625 v -3.53711 l -11.85547,4.015625 -0.002,0.002 c -1.7861,0.604696 -3.54332,1.166207 -5.31445,1.748047 v -21.21289 c 1.77113,-0.581841 3.52835,-1.143351 5.31445,-1.748047 l 0.002,-0.002 11.85547,-4.015625 v -3.535157 l -11.85547,4.015625 -0.002,0.002 c -55.67263,18.848258 -104.01585,26.523999 -148.31445,27.382813 -61.41093,1.190555 -115.5316,-10.77826 -170.4043,-25.474609 -77.17771,-20.6702771 -155.57692,-46.808975 -255.6875,-46.486328 z m 4.81055,3.560546 c 5.79472,0.03045 11.51838,0.145268 17.17188,0.345704 V 8.7988281 C -863.24334,8.598393 -868.967,8.4816257 -874.76172,8.4511719 Z m -18.0957,0.179688 V 8.6328125 c -5.65512,0.1511575 -11.3803,0.3924946 -17.17188,0.7207031 V -11.859375 c 5.79158,-0.328209 11.51676,-0.569546 17.17188,-0.720703 z m 53.36328,1.09375 c 5.79278,0.388907 11.51629,0.858908 17.17187,1.40625 v 21.21289 c -5.65558,-0.54734 -11.37909,-1.017343 -17.17187,-1.4062495 z m 35.26758,3.4335936 c 5.78885,0.7363845 11.51218,1.5471091 17.17187,2.4238282 V 15.583984 c -5.65969,-0.876719 -11.38302,-1.687443 -17.17187,-2.423828 z m 35.26758,5.4726563 c 5.78157,1.05437 11.50636,2.1672367 17.17187,3.33593748 V 21.96875 c -5.66551,-1.168701 -11.3903,-2.281567 -17.17187,-3.335938 z m 35.26757,7.2773437 c 5.77402,1.3202484 11.49516,2.6859826 17.17188,4.0859375 V 29.996094 c -5.67672,-1.399955 -11.39786,-2.765689 -17.17188,-4.085938 z m 35.26758,8.6894534 c 5.76025,1.50626 11.48406,3.03539 17.17188,4.578125 v 21.21289 c -5.68782,-1.542734 -11.41163,-3.071864 -17.17188,-4.578125 z m 35.26758,9.539062 c 5.7461,1.588193 11.4682,3.169515 17.17187,4.744141 v 21.21289 c -5.70367,-1.574624 -11.42577,-3.155947 -17.17187,-4.74414 z m 35.26758,9.689453 c 1.33364,0.36006 2.67109,0.728975 4.0039,1.085938 4.39288,1.176528 8.78061,2.328629 13.16797,3.464844 v 21.21289 c -4.38736,-1.136215 -8.77509,-2.288315 -13.16797,-3.464844 -1.33281,-0.356961 -2.67026,-0.725877 -4.0039,-1.085937 z m 299.3125,6.5625 v 21.212891 c -5.79775,1.701581 -11.53024,3.303053 -17.17188,4.763672 V 43.941406 c 5.64164,-1.460619 11.37413,-3.06209 17.17188,-4.763672 z m -264.04492,2.535157 c 5.71143,1.382406 11.43455,2.7021 17.17187,3.970703 v 21.21289 c -5.73732,-1.268602 -11.46044,-2.588297 -17.17187,-3.970703 z m 228.77734,6.564453 v 21.21289 c -5.8048,1.283025 -11.52248,2.429861 -17.17187,3.46875 v -21.21289 c 5.64939,-1.03889 11.36707,-2.185725 17.17187,-3.46875 z m -193.50977,1.166015 c 5.69674,1.107272 11.41415,2.157092 17.17188,3.107422 v 21.212891 c -5.75773,-0.950331 -11.47514,-2.000151 -17.17188,-3.107422 z m 158.24219,5.269532 v 21.21289 c -5.79998,0.833469 -11.52201,1.540864 -17.17187,2.132813 V 56.845703 c 5.64986,-0.591949 11.37189,-1.299343 17.17187,-2.132812 z m -122.97461,0.515625 c 5.67994,0.742336 11.40102,1.396496 17.17188,1.947265 v 21.212891 c -5.77086,-0.550769 -11.49194,-1.204929 -17.17188,-1.947266 z m 87.70703,3.142578 v 21.21289 c -5.79408,0.366517 -11.51721,0.615489 -17.17187,0.75 v -21.21289 c 5.65464,-0.134512 11.3778,-0.383484 17.17187,-0.75 z m -52.43945,0.18164 c 5.66742,0.318522 11.39018,0.530881 17.17188,0.632813 v 21.212891 c -5.7817,-0.101933 -11.50446,-0.314291 -17.17188,-0.632813 z"
         style="opacity:1;fill:#ffaaaa;fill-opacity:1;stroke:none;stroke-width:54.45840073;stroke-miterlimit:4;stroke-dasharray:none;stroke-opacity:1"
         inkscape:connector-curvature="0" />
      <path
         inkscape:connector-curvature="0"
         style="opacity:1;fill:#ffaaaa;fill-opacity:1;stroke:none;stroke-width:5.763515;stroke-miterlimit:4;stroke-dasharray:none;stroke-opacity:1"
         d="m -232.72016,39.091943 c -5.00513,0.01613 -10.21009,0.285706 -15.6409,0.857828 l -1.74874,0.185002 v 0.935343 l 1.74874,-0.185001 c 0.93901,-0.09892 1.86901,-0.185047 2.79466,-0.266134 v 5.612577 c -0.92565,0.08109 -1.85565,0.167211 -2.79466,0.266134 l -1.74874,0.185002 v 0.93586 l 1.74874,-0.185002 c 5.43081,-0.572123 10.63577,-0.841701 15.6409,-0.857829 26.48759,-0.08537 47.23071,6.830497 67.65065,12.299508 14.5184,3.88841 28.83783,7.055158 45.08614,6.740157 11.72067,-0.227228 24.511478,-2.258101 39.241528,-7.245036 l 5.19e-4,-5.17e-4 3.13676,-1.062467 v -0.93586 l -3.13676,1.062467 -5.19e-4,5.17e-4 c -0.472572,0.159992 -0.937503,0.308559 -1.406115,0.462504 v -5.612577 c 0.468612,-0.153946 0.933543,-0.302512 1.406115,-0.462504 l 5.19e-4,-5.17e-4 3.13676,-1.062467 v -0.935344 l -3.13676,1.062467 -5.19e-4,5.17e-4 c -14.73005,4.986935 -27.520858,7.017808 -39.241528,7.245036 -16.24831,0.315001 -30.56774,-2.851748 -45.08614,-6.740157 -20.41994,-5.469011 -41.16306,-12.384874 -67.65065,-12.299507 z m 1.27279,0.942061 c 1.53319,0.0081 3.04757,0.03843 4.54339,0.09147 v 5.612577 c -1.49582,-0.05303 -3.0102,-0.08393 -4.54339,-0.09198 z m -4.78782,0.04754 v 5.612577 c -1.49625,0.03999 -3.01104,0.103848 -4.54339,0.190686 V 40.27223 c 1.53235,-0.08684 3.04714,-0.150692 4.54339,-0.190686 z m 14.11903,0.289388 c 1.53268,0.102898 3.04702,0.227253 4.5434,0.37207 v 5.612578 c -1.49638,-0.144817 -3.01072,-0.269172 -4.5434,-0.372071 z m 9.33122,0.908472 c 1.53163,0.194835 3.04593,0.409339 4.54339,0.641304 v 5.612577 c -1.49746,-0.231965 -3.01176,-0.446469 -4.54339,-0.641304 z m 9.33121,1.447973 c 1.52971,0.278969 3.04439,0.573415 4.54339,0.882634 v 5.612577 c -1.499,-0.309219 -3.01368,-0.603664 -4.54339,-0.882633 z m 9.33121,1.925464 c 1.52771,0.349316 3.04143,0.710666 4.5434,1.081071 v 5.612578 c -1.50197,-0.370405 -3.01569,-0.731756 -4.5434,-1.081072 z m 9.33122,2.299085 c 1.52406,0.398531 3.03849,0.803113 4.54339,1.211295 V 53.7758 c -1.5049,-0.408181 -3.01933,-0.812764 -4.54339,-1.211295 z m 9.33121,2.523877 c 1.52032,0.420209 3.0343,0.8386 4.54339,1.25522 V 56.3436 c -1.50909,-0.416619 -3.02307,-0.835011 -4.54339,-1.25522 z m 9.33121,2.563667 c 0.35286,0.09527 0.70673,0.192875 1.05937,0.287321 1.16228,0.31129 2.3232,0.616117 3.48403,0.91674 v 5.612577 c -1.16083,-0.300623 -2.32175,-0.60545 -3.48403,-0.91674 -0.35264,-0.09444 -0.70651,-0.192054 -1.05937,-0.28732 z m 79.193103,1.736328 v 5.612578 c -1.533988,0.45021 -3.05071,0.873933 -4.543393,1.260388 v -5.612577 c 1.492683,-0.386456 3.009405,-0.810178 4.543393,-1.260389 z m -69.861883,0.670761 c 1.51115,0.365761 3.02539,0.71493 4.54339,1.050582 v 5.612577 c -1.518,-0.335651 -3.03224,-0.684821 -4.54339,-1.050582 z m 60.530669,1.736845 v 5.612577 c -1.535853,0.339467 -3.048656,0.6429 -4.543389,0.917773 v -5.612577 c 1.494733,-0.274873 3.007536,-0.578306 4.543389,-0.917773 z m -51.199459,0.308508 c 1.50726,0.292965 3.01999,0.57073 4.54339,0.822172 v 5.612577 c -1.5234,-0.251442 -3.03613,-0.529207 -4.54339,-0.822172 z m 41.86825,1.39423 v 5.612577 c -1.53458,0.220522 -3.04854,0.407687 -4.5434,0.564307 V 58.45045 c 1.49486,-0.156619 3.00882,-0.343784 4.5434,-0.564306 z m -32.53704,0.136426 c 1.50282,0.196409 3.01652,0.369489 4.5434,0.515214 v 5.612577 c -1.52688,-0.145724 -3.04058,-0.318804 -4.5434,-0.515214 z m 23.20582,0.831474 v 5.612577 c -1.53302,0.09697 -3.04726,0.162848 -4.54339,0.198437 v -5.612577 c 1.49612,-0.03559 3.01038,-0.101463 4.54339,-0.198437 z m -13.8746,0.04806 c 1.4995,0.08428 3.01365,0.140463 4.54339,0.167432 v 5.612578 c -1.52974,-0.02697 -3.04389,-0.08316 -4.54339,-0.167432 z"
         id="path1902" />
    </g>
    <g
       id="layer1-0"
       inkscape:label="Layer 1"
       transform="translate(-1156.1915,-652.24481)"
       style="fill:#ffffff">
      <rect
         y="91.847534"
         x="-131.27838"
         height="73.025002"
         width="148.43124"
         id="rect842"
         style="opacity:1;fill:#ffffff;fill-opacity:1;stroke:none;stroke-width:2.64583325;stroke-miterlimit:4;stroke-dasharray:none;stroke-opacity:1" />
      <path
         inkscape:connector-curvature="0"
         id="path821"
         d="m 36.777084,102.79579 -6.085416,7.14375 h 33.337499 l -6.085416,-7.14375 z m -2.431375,7.73545 v 5.79447 h 11.920717 l -10.108424,17.50901 1.717206,0.99116 8.682675,-15.03939 v 12.66537 h 1.605069 v -12.82661 l 8.766907,15.18461 1.717207,-0.99167 -10.09964,-17.49248 h 11.8277 v -5.79447 z m 31.070454,0.50177 -4.644162,0.8382 v 3.3507 l 4.644162,0.60926 z m -19.048449,5.2927 h 0.190169 v 0.11008 z m 1.795238,0 h 0.24598 l -0.24598,0.14211 z"
         style="fill:#ffffff;fill-opacity:1;stroke:#000000;stroke-width:0.26458332px;stroke-linecap:butt;stroke-linejoin:miter;stroke-opacity:1" />
      <path
         id="path879"
         d="m -57.857027,131.14797 h 0.0894 v 0.0517 z"
         style="fill:#ffffff;fill-opacity:1;stroke:none;stroke-width:0.26458332px;stroke-linecap:butt;stroke-linejoin:miter;stroke-opacity:1"
         inkscape:connector-curvature="0" />
      <path
         id="path887"
         d="m -62.640712,96.900978 -22.901962,62.918112 14.662155,-17.53588 13.606404,-38.07209 13.605888,38.07209 15.085383,17.53588 -22.902476,-62.918112 z"
         style="fill:#ffffff;fill-opacity:1;stroke:none;stroke-width:0.26458332px;stroke-linecap:butt;stroke-linejoin:miter;stroke-opacity:1"
         inkscape:connector-curvature="0" />
      <g
         style="fill:#ffffff;stroke-width:0.94181818"
         transform="matrix(1.0617761,0,0,1.0617761,-82.956992,-121.9239)"
         id="g1073">
        <g
           style="fill:#ffffff;stroke-width:0.94181818"
           id="g1066">
          <path
             inkscape:connector-curvature="0"
             transform="scale(0.26458333)"
             id="rect1022"
             d="m 204.17383,829.78125 v 101.08984 a 222.49999,95.999996 0 0 1 17.5,4.80079 V 834.66211 a 222.49999,95.999996 0 0 0 -17.5,-4.88086 z m -224.000002,0.041 a 222.49999,95.999996 0 0 0 -17.5,4.79296 v 101.03125 a 222.49999,95.999996 0 0 1 17.5,-4.87695 z"
             style="opacity:0.5;fill:#ffffff;fill-opacity:1;stroke:#000000;stroke-width:0;stroke-miterlimit:4;stroke-dasharray:none;stroke-dashoffset:0;stroke-opacity:1" />
          <g
             id="g2149"
             style="fill:#ffffff">
            <g
               id="g2145"
               style="fill:#ffffff">
              <path
                 inkscape:connector-curvature="0"
                 id="rect1027"
                 d="m 24.387658,213.40764 a 58.869788,25.399999 0 0 0 -31.8822909,4.10053 v 26.73893 a 58.869788,25.399999 0 0 1 31.8822909,-4.11654 58.869788,25.399999 0 0 1 31.882292,4.11396 V 217.5278 a 58.869788,25.399999 0 0 0 -31.882292,-4.12016 z"
                 style="opacity:0.5;fill:#ffffff;fill-opacity:1;stroke:#000000;stroke-width:0;stroke-miterlimit:4;stroke-dasharray:none;stroke-dashoffset:0;stroke-opacity:1" />
            </g>
          </g>
          <path
             inkscape:connector-curvature="0"
             id="path1046"
             transform="scale(0.26458333)"
             d="m 204.17383,920.92773 v 9.83204 l 8.5,-7.63086 a 222.49999,95.999996 0 0 0 -8.5,-2.20118 z m -224.000002,0.0762 a 222.49999,95.999996 0 0 0 -8.5,2.13476 l 8.5,7.63086 z"
             style="opacity:0.5;fill:#ffffff;stroke:none;stroke-width:0.94181812px;stroke-linecap:butt;stroke-linejoin:miter;stroke-opacity:1" />
          <path
             inkscape:connector-curvature="0"
             id="path1050"
             d="m -294.43758,220.17312 a 588.69788,25.399998 0 0 0 -13.72009,0.37569 l 13.72009,23.69829 z m 637.64583,5.3e-4 v 24.0931 l 13.72526,-23.71018 a 588.69788,25.399998 0 0 0 -13.72526,-0.38292 z"
             style="opacity:0.5;fill:#ffffff;fill-opacity:0.58823529;stroke:none;stroke-width:0.24918936px;stroke-linecap:butt;stroke-linejoin:miter;stroke-opacity:1" />
        </g>
      </g>
      <g
         style="fill:#ffffff;fill-opacity:1;stroke-width:1.53155923"
         transform="matrix(0.65292938,0,0,0.65292939,-19.804805,45.927433)"
         id="g1103">
        <path
           inkscape:connector-curvature="0"
           style="fill:#ffffff;fill-opacity:1;stroke:url(#linearGradient2081);stroke-width:0;stroke-linecap:butt;stroke-linejoin:miter;stroke-miterlimit:4;stroke-dasharray:none;stroke-opacity:1"
           d="m -44.865436,122.90131 -3.261975,0.58812 v 2.35166 l 3.261975,0.4278 z"
           id="path885" />
        <g
           id="g1097"
           style="fill:#ffffff;fill-opacity:1;stroke-width:1.53155923">
          <path
             inkscape:connector-curvature="0"
             id="path1079"
             d="m -64.98453,117.12041 -4.275557,5.01321 h 23.420376 l -4.274786,-5.01321 z"
             style="fill:#ffffff;fill-opacity:1;stroke:url(#linearGradient2083);stroke-width:0;stroke-linecap:butt;stroke-linejoin:miter;stroke-miterlimit:4;stroke-dasharray:none;stroke-opacity:1" />
          <path
             inkscape:connector-curvature="0"
             id="path1087"
             d="m -66.69298,122.81364 v 5.89672 h 8.374608 l -7.102038,17.81756 1.207055,1.00924 6.099243,-15.30508 v 12.88871 h 1.127662 v -13.05302 l 6.159361,15.45262 1.206282,-1.00923 -7.0951,-17.8008 h 8.309089 v -5.89672 z"
             style="fill:#ffffff;fill-opacity:1;stroke:url(#linearGradient963);stroke-width:0;stroke-linecap:butt;stroke-linejoin:miter;stroke-miterlimit:4;stroke-dasharray:none;stroke-opacity:1" />
        </g>
      </g>
      <path
         id="path851"
         d="m -57.011598,131.14797 h 0.115755 l -0.115755,0.0672 z"
         style="fill:#ffffff;fill-opacity:1;stroke:none;stroke-width:0.26458332px;stroke-linecap:butt;stroke-linejoin:miter;stroke-opacity:1"
         inkscape:connector-curvature="0" />
      <path
         inkscape:connector-curvature="0"
         id="path939"
         d="m 41.768195,80.49896 -1.6132,0.15944 -1.384718,5.03085 4.127816,-0.4322 0.87442,1.24192 -0.09547,-5.79313 z m 2.238065,0.28923 0.360172,8.26573 4.432678,-3.29416 -1.414348,-2.49106 -1.730401,-1.5397 z m -4.342468,0.12379 -2.362514,1.14111 -1.44332,1.39475 -1.114754,1.63127 -0.578118,1.59701 5.20833,-0.29976 -0.960676,-0.49676 z m 9.305199,5.11255 -4.456381,3.49974 4.140983,0.9296 0.339102,-0.99944 0.104699,-1.11738 0.01777,-1.21424 -0.179755,-0.98297 z m -14.26661,1.26432 0.02107,0.28131 -0.09876,-0.27671 -5.585621,6.40188 h 7.842125 l 0.08494,0.1173 2.813553,-6.46778 z m 9.349971,2.66167 2.083333,3.94906 1.000185,-0.9395 0.906683,-1.25838 0.401655,-1.01459 z m -0.50964,0.10735 -1.662581,0.41178 -0.0507,4.78049 2.216337,-0.27804 1.037718,-0.33665 0.767749,-0.37686 z m -2.057651,0.1535 -4.059337,4.05183 2.008928,0.63775 1.70209,0.2082 z"
         style="fill:#ffffff;stroke:#000000;stroke-width:0;stroke-linecap:butt;stroke-linejoin:miter;stroke-miterlimit:4;stroke-dasharray:none;stroke-opacity:1" />
      <path
         inkscape:connector-curvature="0"
         id="path990"
         d="m 1117.1773,448.79691 -20.5616,56.48844 13.1638,-15.74387 5.8886,-16.47645 3.5854,2.75729 1.0393,-3.57849 1.3288,-0.30621 -4.8493,-1.88319 -0.083,0.15588 5.3071,-14.85028 5.227,14.62573 -0.5359,-0.51313 -2.1008,3.40171 3.5438,-0.34982 0.1335,0.37349 -3.7603,0.43658 -0.2209,1.52177 3.9571,1.66189 0.5201,-1.93701 0.018,-0.24543 5.4338,15.20567 13.5438,15.74387 -20.562,-56.48844 z m 5.8101,18.65937 1.4002,4.89101 2.1755,-3.12799 -0.7158,-0.6203 -0.8936,-0.46582 -1.0036,-0.4259 -0.8782,-0.18373 z m -0.2774,0.052 -2.5503,0.33172 -1.8666,0.91724 -1.3408,1.05132 6.9946,2.50119 z m -7.1259,5.95301 0.1485,2.35086 0.6708,1.67256 0.9785,1.47909 1.1321,1.02209 1.5153,-4.43216 -0.7386,0.63051 z m 8.3489,1.63591 1.9936,4.74811 1.2109,-1.45449 0.7498,-1.34454 z m -2.961,0.44678 -1.7667,4.20251 0.2412,0.0779 -0.2635,-0.0116 3.43,6.81272 2.6571,-6.51997 0.1262,-0.0311 z"
         style="fill:#ff5e5e;fill-opacity:1;stroke:url(#linearGradient2630);stroke-width:0.26458332px;stroke-linecap:butt;stroke-linejoin:miter;stroke-opacity:1" />
    </g>
    <path
       style="fill:#000000;stroke:none;stroke-width:0.26458332px;stroke-linecap:butt;stroke-linejoin:miter;stroke-opacity:1"
       d="m -57.688986,-139.56254 2.087729,-10.79675 0.935621,-0.74851 -2.087489,10.79699 z"
       id="path2268"
       inkscape:connector-curvature="0" />
    <path
       style="font-style:normal;font-variant:normal;font-weight:bold;font-stretch:condensed;font-size:14.11111069px;line-height:1.25;font-family:'Agency FB';-inkscape-font-specification:'Agency FB, Bold Condensed';font-variant-ligatures:normal;font-variant-caps:normal;font-variant-numeric:normal;font-feature-settings:normal;text-align:start;letter-spacing:0px;word-spacing:0px;writing-mode:lr-tb;text-anchor:start;fill:#333333;fill-opacity:1;stroke:none;stroke-width:0.26458332"
       d="m -29.902051,-145.2149 c -0.157358,0.0117 -0.338102,0.0191 -0.558106,0.0191 l 0.214974,0.59014 c 0.192147,-0.12172 1.099493,-0.82195 1.136882,-1.10536 z"
       id="path2196"
       inkscape:connector-curvature="0"
       sodipodi:nodetypes="ccccc" />
    <rect
       style="opacity:1;fill:#ffffff;fill-opacity:1;stroke:none;stroke-width:2.64583325;stroke-miterlimit:4;stroke-dasharray:none;stroke-dashoffset:0;stroke-opacity:1;paint-order:fill markers stroke"
       id="rect2259"
       width="0.12884305"
       height="1.3118566"
       x="-138.8931"
       y="-82.24514"
       transform="rotate(44.340998)" />
    <path
       style="fill:#666666;stroke:none;stroke-width:0.26458332px;stroke-linecap:butt;stroke-linejoin:miter;stroke-opacity:1"
       d="m -49.145912,-149.07281 h 1.127377 l -0.662714,0.53002 h -1.127377 z"
       id="path2270" />
    <path
       style="font-style:normal;font-variant:normal;font-weight:bold;font-stretch:condensed;font-size:14.11111069px;line-height:1.25;font-family:'Agency FB';-inkscape-font-specification:'Agency FB, Bold Condensed';font-variant-ligatures:normal;font-variant-caps:normal;font-variant-numeric:normal;font-feature-settings:normal;text-align:start;letter-spacing:0px;word-spacing:0px;writing-mode:lr-tb;text-anchor:start;fill:#ffffff;fill-opacity:1;stroke:none;stroke-width:0.26458332"
       d="m -47.076567,-154.9487 -0.375549,2.30673 0.183748,1.13873 h 0.748169 z"
       id="path2204" />
    <path
       style="font-style:normal;font-variant:normal;font-weight:bold;font-stretch:condensed;font-size:14.11111069px;line-height:1.25;font-family:'Agency FB';-inkscape-font-specification:'Agency FB, Bold Condensed';font-variant-ligatures:normal;font-variant-caps:normal;font-variant-numeric:normal;font-feature-settings:normal;text-align:start;letter-spacing:0px;word-spacing:0px;writing-mode:lr-tb;text-anchor:start;fill:#ffffff;fill-opacity:1;stroke:none;stroke-width:0.26458332"
       d="m -48.329859,-156.19028 -1.478767,7.6281 v 0.0194 h 1.127377 l 0.662714,-0.53002 -1.127208,1e-5 v -0.0194 l 1.478598,-7.62826 z"
       id="path2230"
       inkscape:connector-curvature="0"
       sodipodi:nodetypes="ccccccccc" />
    <path
       style="font-style:normal;font-variant:normal;font-weight:bold;font-stretch:condensed;font-size:14.11111069px;line-height:1.25;font-family:'Agency FB';-inkscape-font-specification:'Agency FB, Bold Condensed';font-variant-ligatures:normal;font-variant-caps:normal;font-variant-numeric:normal;font-feature-settings:normal;text-align:start;letter-spacing:0px;word-spacing:0px;writing-mode:lr-tb;text-anchor:start;fill:#ffffff;fill-opacity:1;stroke:none;stroke-width:0.26458332"
       d="m -40.452862,-156.18077 v 7.63798 h 1.142017 l 0.662715,-0.53002 -1.141849,1e-5 -1.7e-4,-7.63787 z"
       id="path2228"
       inkscape:connector-curvature="0"
       sodipodi:nodetypes="ccccccc" />
    <path
       style="font-style:normal;font-variant:normal;font-weight:bold;font-stretch:condensed;font-size:14.11111069px;line-height:1.25;font-family:'Agency FB';-inkscape-font-specification:'Agency FB, Bold Condensed';font-variant-ligatures:normal;font-variant-caps:normal;font-variant-numeric:normal;font-feature-settings:normal;text-align:start;letter-spacing:0px;word-spacing:0px;writing-mode:lr-tb;text-anchor:start;fill:#ffffff;fill-opacity:1;stroke:none;stroke-width:0.26458332"
       d="m -35.92359,-156.18077 v 7.63798 h 1.142018 l 0.66247,-0.53002 -1.141971,1e-5 -4.7e-5,-7.63787 z"
       id="path2226"
       inkscape:connector-curvature="0"
       sodipodi:nodetypes="ccccccc" />
    <path
       style="font-style:normal;font-variant:normal;font-weight:bold;font-stretch:condensed;font-size:14.11111069px;line-height:1.25;font-family:'Agency FB';-inkscape-font-specification:'Agency FB, Bold Condensed';font-variant-ligatures:normal;font-variant-caps:normal;font-variant-numeric:normal;font-feature-settings:normal;text-align:start;letter-spacing:0px;word-spacing:0px;writing-mode:lr-tb;text-anchor:start;fill:#ffffff;fill-opacity:1;stroke:none;stroke-width:0.26458332"
       d="m -33.835015,-156.18077 v 7.63798 h 1.142019 l 0.662713,-0.53002 -1.141849,1e-5 -1.68e-4,-7.63787 z"
       id="path2224"
       inkscape:connector-curvature="0"
       sodipodi:nodetypes="ccccccc" />
    <path
       style="font-style:normal;font-variant:normal;font-weight:bold;font-stretch:condensed;font-size:14.11111069px;line-height:1.25;font-family:'Agency FB';-inkscape-font-specification:'Agency FB, Bold Condensed';font-variant-ligatures:normal;font-variant-caps:normal;font-variant-numeric:normal;font-feature-settings:normal;text-align:start;letter-spacing:0px;word-spacing:0px;writing-mode:lr-tb;text-anchor:start;fill:#ffffff;fill-opacity:1;stroke:none;stroke-width:0.26458332"
       d="m -29.208377,-156.18077 v 7.63798 h 1.142018 l 0.662713,-0.53002 -1.141849,1e-5 -1.69e-4,-7.63787 z"
       id="path2222"
       inkscape:connector-curvature="0"
       sodipodi:nodetypes="ccccccc" />
    <path
       style="font-style:normal;font-variant:normal;font-weight:bold;font-stretch:condensed;font-size:14.11111069px;line-height:1.25;font-family:'Agency FB';-inkscape-font-specification:'Agency FB, Bold Condensed';font-variant-ligatures:normal;font-variant-caps:normal;font-variant-numeric:normal;font-feature-settings:normal;text-align:start;letter-spacing:0px;word-spacing:0px;writing-mode:lr-tb;text-anchor:start;fill:#ffffff;fill-opacity:1;stroke:none;stroke-width:0.26458332"
       d="m -27.119436,-156.18077 v 7.63798 h 1.112736 l 0.662591,-0.53002 -1.11281,1e-5 7.4e-5,-7.63787 z"
       id="path2220"
       inkscape:connector-curvature="0"
       sodipodi:nodetypes="ccccccc" />
    <path
       style="font-style:normal;font-variant:normal;font-weight:bold;font-stretch:condensed;font-size:14.11111069px;line-height:1.25;font-family:'Agency FB';-inkscape-font-specification:'Agency FB, Bold Condensed';font-variant-ligatures:normal;font-variant-caps:normal;font-variant-numeric:normal;font-feature-settings:normal;text-align:start;letter-spacing:0px;word-spacing:0px;writing-mode:lr-tb;text-anchor:start;fill:#ffffff;fill-opacity:1;stroke:none;stroke-width:0.26458332"
       d="m -24.362121,-156.18077 v 2.28551 l 0.736089,1.89421 c -0.0488,-0.23426 -0.07321,-0.41821 -0.07321,-0.55161 l -1.7e-4,-4.15801 z"
       id="path2218"
       inkscape:connector-curvature="0"
       sodipodi:nodetypes="cccscc" />
    <path
       style="font-style:normal;font-variant:normal;font-weight:bold;font-stretch:condensed;font-size:14.11111069px;line-height:1.25;font-family:'Agency FB';-inkscape-font-specification:'Agency FB, Bold Condensed';font-variant-ligatures:normal;font-variant-caps:normal;font-variant-numeric:normal;font-feature-settings:normal;text-align:start;letter-spacing:0px;word-spacing:0px;writing-mode:lr-tb;text-anchor:start;fill:#ffffff;fill-opacity:1;stroke:none;stroke-width:0.26458332"
       d="m -44.072547,-156.57535 c -0.449453,0.005 -0.967788,0.63363 -0.967788,1.09737 v 1.69838 c 0,0.24728 0.08297,0.45075 0.248902,0.61017 l 2.288794,2.16691 v 0.96816 h 0.662883 v -1.49817 l -2.28916,-2.16691 c -0.165934,-0.15942 -0.248901,-0.36289 -0.248901,-0.61017 v -1.69838 c 0.01244,-0.17204 0.111001,-0.42042 0.111001,-0.42042 z"
       id="path2216"
       inkscape:connector-curvature="0"
       sodipodi:nodetypes="cssccccccsccc" />
    <path
       style="font-style:normal;font-variant:normal;font-weight:bold;font-stretch:condensed;font-size:14.11111069px;line-height:1.25;font-family:'Agency FB';-inkscape-font-specification:'Agency FB, Bold Condensed';font-variant-ligatures:normal;font-variant-caps:normal;font-variant-numeric:normal;font-feature-settings:normal;text-align:start;letter-spacing:0px;word-spacing:0px;writing-mode:lr-tb;text-anchor:start;fill:#ffffff;fill-opacity:1;stroke:none;stroke-width:0.26458332"
       d="m -21.251952,-156.65697 c -0.449104,0.006 -1.084552,0.71706 -1.084552,1.17899 v 6.23717 c 0,0.46527 0.226005,0.69802 0.678257,0.69802 h 2.401166 c 0.405904,0 0.63452,-0.17736 0.686309,-0.53148 0.25732,-0.0336 0.265774,-0.0338 0.25732,-0.0336 l -2.682278,0.0351 c -0.452214,0.006 -0.678257,-0.23276 -0.678257,-0.69802 v -6.23718 c 0,-0.0614 0.0041,-0.14173 0.01208,-0.19509 z"
       id="path2214"
       inkscape:connector-curvature="0"
       sodipodi:nodetypes="csssscsssscc" />
    <path
       style="font-style:normal;font-variant:normal;font-weight:bold;font-stretch:condensed;font-size:14.11111069px;line-height:1.25;font-family:'Agency FB';-inkscape-font-specification:'Agency FB, Bold Condensed';font-variant-ligatures:normal;font-variant-caps:normal;font-variant-numeric:normal;font-feature-settings:normal;text-align:start;letter-spacing:0px;word-spacing:0px;writing-mode:lr-tb;text-anchor:start;fill:#ffffff;fill-opacity:1;stroke:none;stroke-width:0.26458332"
       d="m -43.2358,-155.74921 v 0.53001 h 0.733161 v 1.4396 h 1.142019 l 0.662713,-0.5299 -1.141849,-1.1e-4 v -1.4396 z"
       id="path2212"
       inkscape:connector-curvature="0"
       sodipodi:nodetypes="ccccccccc" />
    <path
       style="font-style:normal;font-variant:normal;font-weight:bold;font-stretch:condensed;font-size:14.11111069px;line-height:1.25;font-family:'Agency FB';-inkscape-font-specification:'Agency FB, Bold Condensed';font-variant-ligatures:normal;font-variant-caps:normal;font-variant-numeric:normal;font-feature-settings:normal;text-align:start;letter-spacing:0px;word-spacing:0px;writing-mode:lr-tb;text-anchor:start;fill:#ffffff;fill-opacity:1;stroke:none;stroke-width:0.26458332"
       d="m -38.647962,-155.72981 v 0.53001 h 0.733161 v 2.37884 h 0.662517 v -2.90885 z"
       id="path2210"
       inkscape:connector-curvature="0" />
    <path
       style="font-style:normal;font-variant:normal;font-weight:bold;font-stretch:condensed;font-size:14.11111069px;line-height:1.25;font-family:'Agency FB';-inkscape-font-specification:'Agency FB, Bold Condensed';font-variant-ligatures:normal;font-variant-caps:normal;font-variant-numeric:normal;font-feature-settings:normal;text-align:start;letter-spacing:0px;word-spacing:0px;writing-mode:lr-tb;text-anchor:start;fill:#ffffff;fill-opacity:1;stroke:none;stroke-width:0.26458332"
       d="m -32.030114,-155.72981 v 0.53001 h 0.777085 v 1.89092 h 0.662517 v -2.42093 z"
       id="path2208"
       inkscape:connector-curvature="0" />
    <path
       style="font-style:normal;font-variant:normal;font-weight:bold;font-stretch:condensed;font-size:14.11111069px;line-height:1.25;font-family:'Agency FB';-inkscape-font-specification:'Agency FB, Bold Condensed';font-variant-ligatures:normal;font-variant-caps:normal;font-variant-numeric:normal;font-feature-settings:normal;text-align:start;letter-spacing:0px;word-spacing:0px;writing-mode:lr-tb;text-anchor:start;fill:#ffffff;fill-opacity:1;stroke:none;stroke-width:0.26458332"
       d="m -20.531968,-155.72981 v 0.53001 h 0.825766 v 1.35212 h 1.147143 l 0.662469,-0.53015 -1.146729,1.4e-4 v -1.35212 z"
       id="path2206"
       inkscape:connector-curvature="0"
       sodipodi:nodetypes="ccccccccc" />
    <path
       style="font-style:normal;font-variant:normal;font-weight:bold;font-stretch:condensed;font-size:14.11111069px;line-height:1.25;font-family:'Agency FB';-inkscape-font-specification:'Agency FB, Bold Condensed';font-variant-ligatures:normal;font-variant-caps:normal;font-variant-numeric:normal;font-feature-settings:normal;text-align:start;letter-spacing:0px;word-spacing:0px;writing-mode:lr-tb;text-anchor:start;fill:#ffffff;fill-opacity:1;stroke:none;stroke-width:0.26458332"
       d="m -25.41739,-153.87989 c 0.0488,0.23426 0.07321,0.41785 0.07321,0.55124 v 1.91105 l 1.094434,2.87481 h 1.000364 l 0.662713,-0.53002 -1.00056,1e-5 z"
       id="path2202"
       inkscape:connector-curvature="0"
       sodipodi:nodetypes="cscccccc" />
    <path
       style="font-style:normal;font-variant:normal;font-weight:bold;font-stretch:condensed;font-size:14.11111069px;line-height:1.25;font-family:'Agency FB';-inkscape-font-specification:'Agency FB, Bold Condensed';font-variant-ligatures:normal;font-variant-caps:normal;font-variant-numeric:normal;font-feature-settings:normal;text-align:start;letter-spacing:0px;word-spacing:0px;writing-mode:lr-tb;text-anchor:start;fill:#ffffff;fill-opacity:1;stroke:none;stroke-width:0.26458332"
       d="m -32.030114,-152.77887 v 1.66178 l 0.913615,2.5743 h 1.1907 l 0.662713,-0.53002 -1.190896,1e-5 -1.259148,-3.54794 7.5e-5,-0.68828 z"
       id="path2200"
       inkscape:connector-curvature="0"
       sodipodi:nodetypes="ccccccccc" />
    <path
       style="font-style:normal;font-variant:normal;font-weight:bold;font-stretch:condensed;font-size:14.11111069px;line-height:1.25;font-family:'Agency FB';-inkscape-font-specification:'Agency FB, Bold Condensed';font-variant-ligatures:normal;font-variant-caps:normal;font-variant-numeric:normal;font-feature-settings:normal;text-align:start;letter-spacing:0px;word-spacing:0px;writing-mode:lr-tb;text-anchor:start;fill:#ffffff;fill-opacity:1;stroke:none;stroke-width:0.26458332"
       d="m -20.531968,-152.63245 v 0.97107 h 0.825766 v 1.60761 h 0.662883 v -2.13762 h -0.849193 l -1.69e-4,-0.97121 z"
       id="path2198"
       inkscape:connector-curvature="0"
       sodipodi:nodetypes="ccccccccc" />
    <path
       style="font-style:normal;font-variant:normal;font-weight:bold;font-stretch:condensed;font-size:14.11111069px;line-height:1.25;font-family:'Agency FB';-inkscape-font-specification:'Agency FB, Bold Condensed';font-variant-ligatures:normal;font-variant-caps:normal;font-variant-numeric:normal;font-feature-settings:normal;text-align:start;letter-spacing:0px;word-spacing:0px;writing-mode:lr-tb;text-anchor:start;fill:#ffffff;fill-opacity:1;stroke:none;stroke-width:0.26458332"
       d="m -36.777175,-151.84146 c -0.0074,1.2e-4 -0.01368,0.001 -0.02123,0.001 h -1.849557 v 0.53002 h 1.18704 c 0.401503,0 1.158792,-0.52559 1.213817,-0.87934 z"
       id="path2194"
       inkscape:connector-curvature="0"
       sodipodi:nodetypes="csccscc" />
    <path
       style="font-style:normal;font-variant:normal;font-weight:bold;font-stretch:condensed;font-size:14.11111069px;line-height:1.25;font-family:'Agency FB';-inkscape-font-specification:'Agency FB, Bold Condensed';font-variant-ligatures:normal;font-variant-caps:normal;font-variant-numeric:normal;font-feature-settings:normal;text-align:start;letter-spacing:0px;word-spacing:0px;writing-mode:lr-tb;text-anchor:start;fill:#ffffff;fill-opacity:1;stroke:none;stroke-width:0.26458332"
       d="m -45.040335,-151.06108 v 1.76537 l 0.04283,0.22291 h -0.03111 c 0.05151,0.35307 0.276793,0.53001 0.676426,0.53001 h 2.298677 c 0.403065,0 1.141161,-0.17586 1.192587,-0.52997 v -0.19878 l -2.828748,0.19878 c -0.45763,0.0322 -0.688138,-0.23276 -0.688138,-0.69803 l 7.4e-5,-1.82032 z"
       id="path2192"
       inkscape:connector-curvature="0"
       sodipodi:nodetypes="ccccssccsscc" />
    <path
       style="font-style:normal;font-variant:normal;font-weight:bold;font-stretch:condensed;font-size:14.11111069px;line-height:1.25;font-family:'Agency FB';-inkscape-font-specification:'Agency FB, Bold Condensed';font-variant-ligatures:normal;font-variant-caps:normal;font-variant-numeric:normal;font-feature-settings:normal;text-align:start;letter-spacing:0px;word-spacing:0px;writing-mode:lr-tb;text-anchor:start;fill:#ffffff;fill-opacity:1;stroke:none;stroke-width:0.26458332"
       d="m -47.789231,-150.52229 -0.08382,0.53002 h 0.85139 l 0.229136,1.44948 h 1.1325 l 0.631405,-0.53001 h -1.101023 l -0.229501,-1.44949 z"
       id="text2171"
       inkscape:connector-curvature="0"
       sodipodi:nodetypes="ccccccccc" />
    <path
       inkscape:connector-curvature="0"
       id="path2232"
       style="font-style:normal;font-variant:normal;font-weight:bold;font-stretch:condensed;font-size:14.11111069px;line-height:1.25;font-family:'Agency FB';-inkscape-font-specification:'Agency FB, Bold Condensed';font-variant-ligatures:normal;font-variant-caps:normal;font-variant-numeric:normal;font-feature-settings:normal;text-align:start;letter-spacing:0px;word-spacing:0px;writing-mode:lr-tb;text-anchor:start;fill:#501616;fill-opacity:1;stroke:none;stroke-width:0.26458332"
       d="m -44.997556,-149.07281 h -1.132257 l -0.22938,-1.44949 h -1.429962 l -0.22938,1.44949 h -1.127377 v -0.0196 l 1.478767,-7.6281 h 1.200583 z m -1.52269,-2.43045 -0.556368,-3.44558 -0.561248,3.44558 z" />
    <path
       inkscape:connector-curvature="0"
       id="path2234"
       style="font-style:normal;font-variant:normal;font-weight:bold;font-stretch:condensed;font-size:14.11111069px;line-height:1.25;font-family:'Agency FB';-inkscape-font-specification:'Agency FB, Bold Condensed';font-variant-ligatures:normal;font-variant-caps:normal;font-variant-numeric:normal;font-feature-settings:normal;text-align:start;letter-spacing:0px;word-spacing:0px;writing-mode:lr-tb;text-anchor:start;fill:#501616;fill-opacity:1;stroke:none;stroke-width:0.26458332"
       d="m -40.697907,-149.77072 q 0,0.69791 -0.693019,0.69791 h -2.298678 q -0.688139,0 -0.688139,-0.69791 v -1.82039 h 1.142018 v 1.55685 h 1.3958 v -1.49829 l -2.288916,-2.1669 q -0.248902,-0.23914 -0.248902,-0.61005 v -1.69839 q 0,-0.70278 0.688139,-0.70278 h 2.298678 q 0.693019,0 0.693019,0.69302 v 1.70815 h -1.142018 v -1.43973 h -1.3958 v 1.38116 l 2.288917,2.15715 q 0.248901,0.23426 0.248901,0.61981 z" />
    <path
       inkscape:connector-curvature="0"
       id="path2236"
       style="font-style:normal;font-variant:normal;font-weight:bold;font-stretch:condensed;font-size:14.11111069px;line-height:1.25;font-family:'Agency FB';-inkscape-font-specification:'Agency FB, Bold Condensed';font-variant-ligatures:normal;font-variant-caps:normal;font-variant-numeric:normal;font-feature-settings:normal;text-align:start;letter-spacing:0px;word-spacing:0px;writing-mode:lr-tb;text-anchor:start;fill:#501616;fill-opacity:1;stroke:none;stroke-width:0.26458332"
       d="m -36.100552,-152.55256 q 0,0.71255 -0.6979,0.71255 h -1.849678 v 2.7672 h -1.142019 v -7.63786 h 2.991697 q 0.6979,0 0.6979,0.70278 z m -1.151779,-0.26842 v -2.90873 h -1.395799 v 2.90873 z" />
    <path
       inkscape:connector-curvature="0"
       id="path2238"
       style="font-style:normal;font-variant:normal;font-weight:bold;font-stretch:condensed;font-size:14.11111069px;line-height:1.25;font-family:'Agency FB';-inkscape-font-specification:'Agency FB, Bold Condensed';font-variant-ligatures:normal;font-variant-caps:normal;font-variant-numeric:normal;font-feature-settings:normal;text-align:start;letter-spacing:0px;word-spacing:0px;writing-mode:lr-tb;text-anchor:start;fill:#501616;fill-opacity:1;stroke:none;stroke-width:0.26458332"
       d="m -34.119102,-149.07281 h -1.142018 v -7.63786 h 1.142018 z" />
    <path
       inkscape:connector-curvature="0"
       id="path2240"
       style="font-style:normal;font-variant:normal;font-weight:bold;font-stretch:condensed;font-size:14.11111069px;line-height:1.25;font-family:'Agency FB';-inkscape-font-specification:'Agency FB, Bold Condensed';font-variant-ligatures:normal;font-variant-caps:normal;font-variant-numeric:normal;font-feature-settings:normal;text-align:start;letter-spacing:0px;word-spacing:0px;writing-mode:lr-tb;text-anchor:start;fill:#501616;fill-opacity:1;stroke:none;stroke-width:0.26458332"
       d="m -29.263085,-149.07281 h -1.190822 l -1.259148,-3.54807 v -0.68814 h 1.122496 v -2.42069 h -1.439724 v 6.6569 H -33.1723 v -6.66669 -0.97117 h 3.030739 c 0.45876,0 0.688139,0.23426 0.688139,0.70278 v 2.77696 c 0,0.32211 -0.108996,0.53034 -0.326988,0.62469 -0.117129,0.0488 -0.364404,0.0732 -0.741823,0.0732 z"
       sodipodi:nodetypes="cccccccccccsssccc" />
    <path
       inkscape:connector-curvature="0"
       id="path2242"
       style="font-style:normal;font-variant:normal;font-weight:bold;font-stretch:condensed;font-size:14.11111069px;line-height:1.25;font-family:'Agency FB';-inkscape-font-specification:'Agency FB, Bold Condensed';font-variant-ligatures:normal;font-variant-caps:normal;font-variant-numeric:normal;font-feature-settings:normal;text-align:start;letter-spacing:0px;word-spacing:0px;writing-mode:lr-tb;text-anchor:start;fill:#501616;fill-opacity:1;stroke:none;stroke-width:0.26458332"
       d="m -27.403646,-149.07281 h -1.142018 v -7.63786 h 1.142018 z" />
    <path
       inkscape:connector-curvature="0"
       id="path2244"
       style="font-style:normal;font-variant:normal;font-weight:bold;font-stretch:condensed;font-size:14.11111069px;line-height:1.25;font-family:'Agency FB';-inkscape-font-specification:'Agency FB, Bold Condensed';font-variant-ligatures:normal;font-variant-caps:normal;font-variant-numeric:normal;font-feature-settings:normal;text-align:start;letter-spacing:0px;word-spacing:0px;writing-mode:lr-tb;text-anchor:start;fill:#501616;fill-opacity:1;stroke:none;stroke-width:0.26458332"
       d="m -22.586673,-149.07281 h -1.000485 l -1.830158,-4.80722 q 0.07321,0.3514 0.07321,0.55149 v 4.25573 h -1.112736 v -7.63786 h 1.000486 l 1.830157,4.70961 q -0.07321,-0.3514 -0.07321,-0.5515 v -4.15811 h 1.112735 z" />
    <path
       inkscape:connector-curvature="0"
       id="path2246"
       style="font-style:normal;font-variant:normal;font-weight:bold;font-stretch:condensed;font-size:14.11111069px;line-height:1.25;font-family:'Agency FB';-inkscape-font-specification:'Agency FB, Bold Condensed';font-variant-ligatures:normal;font-variant-caps:normal;font-variant-numeric:normal;font-feature-settings:normal;text-align:start;letter-spacing:0px;word-spacing:0px;writing-mode:lr-tb;text-anchor:start;fill:#501616;fill-opacity:1;stroke:none;stroke-width:0.26458332"
       d="m -17.89659,-149.77072 q 0,0.69791 -0.697899,0.69791 h -2.401166 q -0.678379,0 -0.678379,-0.69791 v -6.23717 q 0,-0.70278 0.693019,-0.70278 h 2.386526 q 0.697899,0 0.697899,0.70278 v 1.63006 h -1.146898 v -1.35188 h -1.488528 v 5.67593 h 1.488528 v -2.13762 h -0.849193 v -0.9712 h 1.996091 z" />
  </g>
</svg>
