<?xml version="1.0" encoding="UTF-8" standalone="no"?>
<!-- Created with Inkscape (http://www.inkscape.org/) -->

<svg
   xmlns:dc="http://purl.org/dc/elements/1.1/"
   xmlns:cc="http://creativecommons.org/ns#"
   xmlns:rdf="http://www.w3.org/1999/02/22-rdf-syntax-ns#"
   xmlns:svg="http://www.w3.org/2000/svg"
   xmlns="http://www.w3.org/2000/svg"
   xmlns:sodipodi="http://sodipodi.sourceforge.net/DTD/sodipodi-0.dtd"
   xmlns:inkscape="http://www.inkscape.org/namespaces/inkscape"
   sodipodi:docname="8.svg"
   id="svg8"
   version="1.1"
   viewBox="0 0 210 297"
   height="297mm"
   width="210mm"
   inkscape:version="0.92.3 (2405546, 2018-03-11)">
  <sodipodi:namedview
     inkscape:snap-intersection-paths="false"
     inkscape:window-maximized="1"
     inkscape:window-y="-8"
     inkscape:window-x="-8"
     inkscape:window-height="705"
     inkscape:window-width="1366"
     inkscape:object-nodes="false"
     showgrid="false"
     inkscape:current-layer="layer1"
     inkscape:document-units="mm"
     inkscape:cy="810.79525"
     inkscape:cx="-939.16537"
     inkscape:zoom="1.0074671"
     inkscape:pageshadow="2"
     inkscape:pageopacity="0.0"
     borderopacity="1.0"
     bordercolor="#666666"
     pagecolor="#ffffff"
     id="base"
     showguides="true"
     inkscape:guide-bbox="true" />
  <defs
     id="defs2" />
  <metadata
     id="metadata5">
    <rdf:RDF>
      <cc:Work
         rdf:about="">
        <dc:format>image/svg+xml</dc:format>
        <dc:type
           rdf:resource="http://purl.org/dc/dcmitype/StillImage" />
        <dc:title></dc:title>
      </cc:Work>
    </rdf:RDF>
  </metadata>
  <g
     inkscape:label="Layer 1"
     inkscape:groupmode="layer"
     id="layer1">
    <path
       style="color:#000000;font-style:normal;font-variant:normal;font-weight:normal;font-stretch:normal;font-size:medium;line-height:normal;font-family:sans-serif;font-variant-ligatures:normal;font-variant-position:normal;font-variant-caps:normal;font-variant-numeric:normal;font-variant-alternates:normal;font-feature-settings:normal;text-indent:0;text-align:start;text-decoration:none;text-decoration-line:none;text-decoration-style:solid;text-decoration-color:#000000;letter-spacing:normal;word-spacing:normal;text-transform:none;writing-mode:lr-tb;direction:ltr;text-orientation:mixed;dominant-baseline:auto;baseline-shift:baseline;text-anchor:start;white-space:normal;shape-padding:0;clip-rule:nonzero;display:inline;overflow:visible;visibility:visible;opacity:1;isolation:auto;mix-blend-mode:normal;color-interpolation:sRGB;color-interpolation-filters:linearRGB;solid-color:#000000;solid-opacity:1;vector-effect:none;fill:#000000;fill-opacity:1;fill-rule:nonzero;stroke:none;stroke-width:17.80772209;stroke-linecap:butt;stroke-linejoin:miter;stroke-miterlimit:4;stroke-dasharray:none;stroke-dashoffset:0;stroke-opacity:1;color-rendering:auto;image-rendering:auto;shape-rendering:auto;text-rendering:auto;enable-background:accumulate"
       d="M -1028.5957 143.36719 C -1055.839 143.37015 -1082.7127 147.06931 -1107.5703 154.3457 L -1107.6699 154.3457 L -1108.9141 154.71875 L -1123.4707 159.07227 L -1127.1777 173.80078 C -1130.3942 186.59127 -1132.6856 199.4749 -1133.7539 212.32422 L -1136.332 212.66016 L -1136.332 229.55859 C -1137.9279 229.76378 -1139.5371 229.9552 -1141.123 230.16992 L -1141.1855 230.17969 L -1141.3359 230.19922 L -1141.4297 230.21875 C -1147.6241 231.109 -1153.7381 232.06937 -1159.7539 233.10352 L -1165.4531 234.08203 L -1165.4531 325.66211 L -1157.4238 324.27539 C -1142.0827 321.62652 -1126.0928 319.44898 -1109.6465 317.76953 L -1106.4238 317.44141 C -1091.2501 338.50394 -1069.7729 357.34272 -1041.9258 373.37891 L -1028.5918 381.05859 L -1015.2617 373.37891 L -1015.2617 373.37695 C -986.78302 356.97666 -964.97191 337.6417 -949.74609 315.99805 L -949.74219 317.10352 L -943.60547 317.73438 C -927.1564 319.42639 -911.17048 321.6172 -895.83398 324.2793 L -887.79688 325.67383 L -887.79688 233.9668 L -893.5332 233.01172 C -900.25309 231.89444 -907.0878 230.86844 -914.01953 229.92969 L -914.03906 229.92578 C -914.06174 229.92253 -914.08519 229.91904 -914.10938 229.91602 L -914.18164 229.9043 C -917.03001 229.48953 -919.90869 229.10248 -922.79102 228.71875 L -922.79102 228.7168 L -919.05078 229.22656 L -919.05078 212.50391 L -923.5293 211.92773 C -924.29967 202.94677 -925.64436 193.95048 -927.5 184.98047 L -927.19727 184.98047 L -933.66797 159.20312 L -948.19727 154.83203 L -949.44727 154.45508 L -949.54688 154.45508 C -974.40216 147.13716 -1001.2947 143.40122 -1028.5605 143.36719 L -1028.5645 143.36719 L -1028.5762 143.36719 L -1028.5879 143.36719 L -1028.5918 143.36719 L -1028.5938 143.36719 L -1028.5957 143.36719 z M -1028.5957 152.27148 L -1028.5938 152.27148 L -1028.5898 152.27148 L -1028.5781 152.27148 L -1028.5742 152.27148 C -1001.6362 152.30512 -975.08056 156.0508 -950.76172 163.35938 L -950.75977 163.35938 L -941.07617 166.27344 L -938.61523 176.07617 C -935.6994 187.69074 -933.59454 199.29761 -932.50391 210.81445 C -935.50261 210.45963 -938.51574 210.12375 -941.54102 209.80273 C -942.62881 199.40434 -944.58295 188.86774 -947.25 178.24414 L -948.47852 173.34375 L -953.32227 171.88672 C -976.72982 164.85199 -1002.4667 161.20838 -1028.584 161.17578 L -1028.5879 161.17578 L -1028.5938 161.17578 C -1054.6872 161.17874 -1080.4036 164.78591 -1103.8164 171.78125 L -1108.6699 173.23242 L -1109.9062 178.14453 C -1112.6138 188.91124 -1114.5888 199.58822 -1115.6738 210.12305 C -1118.7008 210.45631 -1121.7174 210.80267 -1124.7168 211.16992 C -1123.6323 199.50221 -1121.5025 187.74163 -1118.543 175.97266 L -1116.0723 166.15234 L -1106.3691 163.25 L -1106.3672 163.25 C -1082.0451 155.98302 -1055.5092 152.27445 -1028.5957 152.27148 z M -1026.7266 172.20117 L -1023.0332 183.51953 L -1011.1289 183.32031 L -1020.752 190.33008 L -1016.8848 201.58984 L -1026.5254 194.60352 L -1036.0371 201.76172 L -1032.373 190.43359 L -1042.1211 183.59766 L -1030.2148 183.58398 L -1026.7266 172.20117 z M -1062.4648 172.26562 C -1068.172 183.7741 -1072.7601 195.27687 -1076.002 206.77539 C -1086.3062 207.38866 -1096.5204 208.18909 -1106.6016 209.17773 C -1105.5311 199.72576 -1103.7322 190.09778 -1101.2715 180.3125 A 159.70002 93.311189 0 0 1 -1062.4648 172.26562 z M -994.69141 172.36719 A 159.70002 93.311189 0 0 1 -955.88672 180.41406 C -953.45949 190.06614 -951.67751 199.56445 -950.60156 208.89258 C -960.69832 207.94148 -970.92208 207.1775 -981.23242 206.60156 C -984.46972 195.19474 -989.02983 183.7838 -994.69141 172.36719 z M -1027.6934 212.15039 A 297.5693 104.36488 0 0 1 -925.91406 218.53906 L -925.91406 235.21484 A 297.56929 104.36488 0 0 1 -925.91602 235.21484 L -925.91211 296.0957 L -915.1543 236.73047 A 297.56929 104.36488 0 0 1 -894.6582 239.78125 L -894.6582 317.51758 A 297.56929 104.36488 0 0 0 -942.9043 310.9082 L -925.91602 296.33203 A 297.56929 104.36488 0 0 0 -942.9043 294.36914 A 297.56929 104.36488 0 0 0 -942.96875 294.36133 L -942.96875 294.36328 A 297.5693 104.36488 0 0 0 -1027.6934 289.77734 A 297.5693 104.36488 0 0 0 -1110.3457 294.13867 L -1110.3457 310.94336 A 297.56929 104.36488 0 0 0 -1158.5918 317.51367 L -1158.5918 239.86523 A 297.56929 104.36488 0 0 1 -1140.1777 237.1543 L -1129.4688 296.24219 L -1129.4688 235.59961 L -1129.4688 218.68555 A 297.5693 104.36488 0 0 1 -1027.6934 212.15039 z M -1129.4688 296.24219 L -1110.3457 310.94336 L -1110.3516 294.14062 A 297.56929 104.36488 0 0 0 -1129.4688 296.24219 z M -988.07617 297.72852 C -982.08626 298.03836 -976.12593 298.41623 -970.19922 298.85352 C -982.74286 317.48761 -1001.499 334.63245 -1027.9043 349.94336 C -1009.4968 332.55873 -996.50219 315.15302 -988.07617 297.72852 z M -1068.9824 297.82617 C -1060.5539 315.18396 -1047.591 332.5236 -1029.2539 349.8418 C -1055.5534 334.59222 -1074.2677 317.52413 -1086.8105 298.97656 C -1080.9009 298.52903 -1074.9559 298.14735 -1068.9824 297.82617 z M -960.21875 299.65039 C -956.93052 299.93397 -953.65449 300.2348 -950.39258 300.55664 C -964.68865 325.14916 -987.54962 347.14359 -1019.707 365.66211 L -1028.5957 370.7832 L -1037.4844 365.66406 C -1067.2643 348.51484 -1089.0666 328.38386 -1103.4824 305.9707 L -1103.4824 300.40234 C -1101.2872 300.19034 -1099.0781 299.99754 -1096.8711 299.80273 C -1083.3677 321.40646 -1062.4829 340.99059 -1033.0371 357.94727 L -1028.5938 360.50781 L -1024.1504 357.94727 C -994.63654 340.95143 -973.71975 321.31444 -960.21875 299.65039 z "
       transform="scale(0.26458333)"
       id="path934" />
    <path
       inkscape:connector-curvature="0"
       id="path1697"
       style="font-style:normal;font-variant:normal;font-weight:normal;font-stretch:normal;font-size:19.74698448px;line-height:1.25;font-family:'League Gothic';-inkscape-font-specification:'League Gothic, Normal';font-variant-ligatures:normal;font-variant-caps:normal;font-variant-numeric:normal;font-feature-settings:normal;text-align:start;letter-spacing:0px;word-spacing:0px;writing-mode:lr-tb;text-anchor:start;fill:#000000;fill-opacity:1;stroke:none;stroke-width:0.52799708;opacity:1"
       d="m -287.02211,63.415485 c 0,-0.504281 -0.0218,-1.069963 -0.1746,-1.499602 -0.15277,-0.408611 -0.39286,-0.684495 -0.76388,-0.65626 -0.6111,0.06759 -0.80752,0.691608 -0.80752,1.594854 0,0.525136 0.24007,1.053128 0.58926,1.614939 0.34922,0.561864 0.80754,1.136605 1.26586,1.753475 0.54563,0.736506 1.09126,1.494179 1.50594,2.240782 0.41467,0.74671 0.69839,1.524329 0.69839,2.365157 0,1.030006 -0.1746,2.009882 -0.67657,2.761641 -0.50198,0.751629 -1.3095,1.273482 -2.59718,1.368328 -1.50593,0.110931 -2.35711,-0.372355 -2.83726,-1.176862 -0.48014,-0.804357 -0.58928,-1.909037 -0.58928,-3.063814 0,0 2.31346,-0.382301 2.31346,-0.382301 0,0.651137 0.0219,1.300649 0.19642,1.770801 0.15278,0.492794 0.41468,0.809502 0.91666,0.772346 0.6984,-0.05166 0.9603,-0.785512 0.9603,-1.773079 0,-0.504291 -0.2619,-1.073096 -0.6111,-1.656362 -0.19642,-0.279466 -0.39285,-0.579917 -0.61111,-0.87871 -0.45831,-0.595897 -0.9603,-1.272424 -1.48409,-2.010193 -0.52382,-0.73763 -0.91665,-1.505976 -1.15674,-2.306761 -0.13094,-0.389061 -0.19642,-0.804037 -0.19642,-1.223975 0,-0.839876 0.19642,-1.757699 0.6984,-2.488901 0.50197,-0.710314 1.26585,-1.25175 2.37894,-1.357879 1.41861,-0.08866 2.24798,0.374548 2.70631,1.159269 0.45831,0.805876 0.58926,1.825924 0.58926,2.687768 0,0 -2.31345,0.385339 -2.31345,0.385339" />
    <path
       inkscape:connector-curvature="0"
       id="path1699"
       style="font-style:normal;font-variant:normal;font-weight:normal;font-stretch:normal;font-size:19.74698448px;line-height:1.25;font-family:'League Gothic';-inkscape-font-specification:'League Gothic, Normal';font-variant-ligatures:normal;font-variant-caps:normal;font-variant-numeric:normal;font-feature-settings:normal;text-align:start;letter-spacing:0px;word-spacing:0px;writing-mode:lr-tb;text-anchor:start;fill:#000000;fill-opacity:1;stroke:none;stroke-width:0.52799708;opacity:1"
       d="m -279.54263,67.614727 c 0,0 -1.79684,0.07016 -1.79684,0.07016 0,0 0,6.869 0,6.869 0,0 -2.31023,0.08631 -2.31023,0.08631 0,0 0,-15.768299 0,-15.768299 0,0 2.31023,-0.0953 2.31023,-0.0953 0,0 0,6.525554 0,6.525554 0,0 1.79684,-0.07123 1.79684,-0.07123 0,0 0,-6.528442 0,-6.528442 0,0 2.31024,-0.09529 2.31024,-0.09529 0,0 0,15.793176 0,15.793176 0,0 -2.31024,0.08631 -2.31024,0.08631 0,0 0,-6.872038 0,-6.872038" />
    <path
       inkscape:connector-curvature="0"
       id="path1701"
       style="font-style:normal;font-variant:normal;font-weight:normal;font-stretch:normal;font-size:19.74698448px;line-height:1.25;font-family:'League Gothic';-inkscape-font-specification:'League Gothic, Normal';font-variant-ligatures:normal;font-variant-caps:normal;font-variant-numeric:normal;font-feature-settings:normal;text-align:start;letter-spacing:0px;word-spacing:0px;writing-mode:lr-tb;text-anchor:start;fill:#000000;fill-opacity:1;stroke:none;stroke-width:0.52799708;opacity:1"
       d="m -275.60693,58.575181 c 0,0 2.46611,-0.04866 2.46611,-0.04866 0,0 0,15.791519 0,15.791519 0,0 -2.46611,0.02706 -2.46611,0.02706 0,0 0,-15.769914 0,-15.769914" />
    <path
       inkscape:connector-curvature="0"
       id="path1703"
       style="font-style:normal;font-variant:normal;font-weight:normal;font-stretch:normal;font-size:19.74698448px;line-height:1.25;font-family:'League Gothic';-inkscape-font-specification:'League Gothic, Normal';font-variant-ligatures:normal;font-variant-caps:normal;font-variant-numeric:normal;font-feature-settings:normal;text-align:start;letter-spacing:0px;word-spacing:0px;writing-mode:lr-tb;text-anchor:start;fill:#000000;fill-opacity:1;stroke:none;stroke-width:0.52799708;opacity:1"
       d="m -271.65629,58.504432 c 0,0 5.35891,0.09722 5.35891,0.09722 0,0 0,2.387093 0,2.387093 0,0 -3.01574,-0.05487 -3.01574,-0.05487 0,0 0,4.150279 0,4.150279 0,0 2.1696,0.03968 2.1696,0.03968 0,0 0,2.537596 0,2.537596 0,0 -2.1696,-0.03979 -2.1696,-0.03979 0,0 0,4.34382 0,4.34382 0,0 3.01574,0.05551 3.01574,0.05551 0,0 0,2.387094 0,2.387094 0,0 -5.35891,-0.09893 -5.35891,-0.09893 0,0 0,-15.804728 0,-15.804728" />
    <path
       inkscape:connector-curvature="0"
       id="path1705"
       style="font-style:normal;font-variant:normal;font-weight:normal;font-stretch:normal;font-size:19.74698448px;line-height:1.25;font-family:'League Gothic';-inkscape-font-specification:'League Gothic, Normal';font-variant-ligatures:normal;font-variant-caps:normal;font-variant-numeric:normal;font-feature-settings:normal;text-align:start;letter-spacing:0px;word-spacing:0px;writing-mode:lr-tb;text-anchor:start;fill:#000000;fill-opacity:1;stroke:none;stroke-width:0.52799708;opacity:1"
       d="m -265.09638,58.644261 c 0,0 2.33675,0.09209 2.33675,0.09209 0,0 0,13.65385 0,13.65385 0,0 3.09401,0.142546 3.09401,0.142546 0,0 0,2.153466 0,2.153466 0,0 -5.43076,-0.255905 -5.43076,-0.255905 0,0 0,-15.785989 0,-15.785989" />
    <path
       inkscape:connector-curvature="0"
       id="path1707"
       style="font-style:normal;font-variant:normal;font-weight:normal;font-stretch:normal;font-size:19.74698448px;line-height:1.25;font-family:'League Gothic';-inkscape-font-specification:'League Gothic, Normal';font-variant-ligatures:normal;font-variant-caps:normal;font-variant-numeric:normal;font-feature-settings:normal;text-align:start;letter-spacing:0px;word-spacing:0px;writing-mode:lr-tb;text-anchor:start;fill:#000000;fill-opacity:1;stroke:none;stroke-width:0.52799708;opacity:1"
       d="m -258.88855,74.728156 c 0,0 0,-15.814182 0,-15.814182 0,0 1.83828,0.132792 1.83828,0.132792 2.1627,0.156236 3.33054,0.671405 3.95772,1.923198 0.60556,1.250563 0.69206,3.239162 0.69206,6.341895 0,3.102712 -0.0865,5.056979 -0.69206,6.217927 -0.62718,1.159001 -1.79502,1.501366 -3.95772,1.337579 0,0 -1.83828,-0.139209 -1.83828,-0.139209 m 2.3357,-2.148033 c 0.8002,0.06021 1.25436,0.0086 1.49226,-0.749117 0.1081,-0.35798 0.19464,-0.911406 0.21628,-1.663517 0.0216,-0.752121 0.0216,-1.764276 0.0216,-3.05639 0,-1.292114 0,-2.30427 -0.0216,-3.059578 -0.0217,-0.73378 -0.1081,-1.299997 -0.21628,-1.695518 -0.2379,-0.770998 -0.69206,-0.890176 -1.49226,-0.94839 0,0 0,11.17251 0,11.17251" />
  </g>
</svg>
