<?xml version="1.0" encoding="UTF-8" standalone="no"?>
<!-- Created with Inkscape (http://www.inkscape.org/) -->

<svg
   xmlns:dc="http://purl.org/dc/elements/1.1/"
   xmlns:cc="http://creativecommons.org/ns#"
   xmlns:rdf="http://www.w3.org/1999/02/22-rdf-syntax-ns#"
   xmlns:svg="http://www.w3.org/2000/svg"
   xmlns="http://www.w3.org/2000/svg"
   xmlns:sodipodi="http://sodipodi.sourceforge.net/DTD/sodipodi-0.dtd"
   xmlns:inkscape="http://www.inkscape.org/namespaces/inkscape"
   width="210mm"
   height="297mm"
   viewBox="0 0 210 297"
   version="1.1"
   id="svg8"
   inkscape:version="0.92.3 (2405546, 2018-03-11)"
   sodipodi:docname="inkscape.svg">
  <defs
     id="defs2">
    <inkscape:perspective
       sodipodi:type="inkscape:persp3d"
       inkscape:vp_x="0 : 148.5 : 1"
       inkscape:vp_y="0 : 1000 : 0"
       inkscape:vp_z="210 : 148.5 : 1"
       inkscape:persp3d-origin="105 : 99 : 1"
       id="perspective1013" />
  </defs>
  <sodipodi:namedview
     id="base"
     pagecolor="#ffffff"
     bordercolor="#666666"
     borderopacity="1.0"
     inkscape:pageopacity="0.0"
     inkscape:pageshadow="2"
     inkscape:zoom="1"
     inkscape:cx="-450.03272"
     inkscape:cy="565.03888"
     inkscape:document-units="mm"
     inkscape:current-layer="text959"
     showgrid="false"
     inkscape:snap-global="true"
     inkscape:object-nodes="false"
     showguides="true"
     inkscape:guide-bbox="true"
     inkscape:window-width="1366"
     inkscape:window-height="705"
     inkscape:window-x="-8"
     inkscape:window-y="-8"
     inkscape:window-maximized="1" />
  <metadata
     id="metadata5">
    <rdf:RDF>
      <cc:Work
         rdf:about="">
        <dc:format>image/svg+xml</dc:format>
        <dc:type
           rdf:resource="http://purl.org/dc/dcmitype/StillImage" />
        <dc:title></dc:title>
      </cc:Work>
    </rdf:RDF>
  </metadata>
  <g
     inkscape:label="Layer 1"
     inkscape:groupmode="layer"
     id="layer1">
    <path
       style="opacity:0.986;fill:#000000;stroke:none;stroke-width:0.26458332px;stroke-linecap:butt;stroke-linejoin:miter;stroke-opacity:1"
       d="m -76.882831,155.39591 -13.433922,7.75608 -4.276307,-15.95939 z"
       id="path953"
       inkscape:connector-curvature="0" />
    <path
       style="opacity:0.986;fill:#000000;stroke:none;stroke-width:0.26458332px;stroke-linecap:butt;stroke-linejoin:miter;stroke-opacity:1"
       d="m -171.82511,152.55887 16.06145,-9.27308 7.99827,13.85342 z"
       id="path951"
       inkscape:connector-curvature="0" />
    <path
       style="color:#000000;font-style:normal;font-variant:normal;font-weight:normal;font-stretch:normal;font-size:medium;line-height:normal;font-family:sans-serif;font-variant-ligatures:normal;font-variant-position:normal;font-variant-caps:normal;font-variant-numeric:normal;font-variant-alternates:normal;font-feature-settings:normal;text-indent:0;text-align:start;text-decoration:none;text-decoration-line:none;text-decoration-style:solid;text-decoration-color:#000000;letter-spacing:normal;word-spacing:normal;text-transform:none;writing-mode:lr-tb;direction:ltr;text-orientation:mixed;dominant-baseline:auto;baseline-shift:baseline;text-anchor:start;white-space:normal;shape-padding:0;clip-rule:nonzero;display:inline;overflow:visible;visibility:visible;opacity:0.986;isolation:auto;mix-blend-mode:normal;color-interpolation:sRGB;color-interpolation-filters:linearRGB;solid-color:#000000;solid-opacity:1;vector-effect:none;fill:#000000;fill-opacity:1;fill-rule:nonzero;stroke:none;stroke-width:20;stroke-linecap:butt;stroke-linejoin:miter;stroke-miterlimit:4;stroke-dasharray:none;stroke-dashoffset:0;stroke-opacity:1;color-rendering:auto;image-rendering:auto;shape-rendering:auto;text-rendering:auto;enable-background:accumulate"
       d="M -470.43164 390.27148 L -475.44141 393.14062 L -480.45312 396.01172 L -531.02148 424.97461 C -537.73624 428.11824 -544.09144 431.84407 -550.1582 435.93359 L -612.98047 471.91602 L -613.22656 605.79688 C -613.3373 607.49815 -613.4302 609.21062 -613.48047 610.94531 L -613.48438 611.08984 L -613.48438 611.375 L -613.48438 611.52148 C -613.48426 690.25403 -549.52572 754.55878 -471.00195 754.55859 C -392.47822 754.55878 -328.51182 690.25467 -328.51172 611.52148 L -328.51172 611.4707 L -328.51172 611.37695 L -328.51172 611.32812 C -328.53288 609.18336 -328.61771 607.06317 -328.73242 604.96289 L -328.49414 472.875 L -389.46484 437.39062 L -389.49023 437.375 C -395.95712 432.85423 -402.78512 428.87622 -409.91406 425.48633 L -409.92969 425.47852 L -470.43164 390.27148 z "
       id="path926"
       transform="scale(0.26458333)" />
    <path
       style="color:#000000;font-style:normal;font-variant:normal;font-weight:normal;font-stretch:normal;font-size:medium;line-height:normal;font-family:sans-serif;font-variant-ligatures:normal;font-variant-position:normal;font-variant-caps:normal;font-variant-numeric:normal;font-variant-alternates:normal;font-feature-settings:normal;text-indent:0;text-align:start;text-decoration:none;text-decoration-line:none;text-decoration-style:solid;text-decoration-color:#000000;letter-spacing:normal;word-spacing:normal;text-transform:none;writing-mode:lr-tb;direction:ltr;text-orientation:mixed;dominant-baseline:auto;baseline-shift:baseline;text-anchor:start;white-space:normal;shape-padding:0;clip-rule:nonzero;display:inline;overflow:visible;visibility:visible;opacity:0.986;isolation:auto;mix-blend-mode:normal;color-interpolation:sRGB;color-interpolation-filters:linearRGB;solid-color:#000000;solid-opacity:1;vector-effect:none;fill:#ffffff;fill-opacity:1;fill-rule:nonzero;stroke:none;stroke-width:20;stroke-linecap:butt;stroke-linejoin:miter;stroke-miterlimit:4;stroke-dasharray:none;stroke-dashoffset:0;stroke-opacity:1;color-rendering:auto;image-rendering:auto;shape-rendering:auto;text-rendering:auto;enable-background:accumulate"
       d="M -470.4707 401.81836 L -475.48242 404.68945 L -526.35547 433.82617 C -533.21836 437.00324 -539.76048 440.82095 -545.98633 445.12109 L -546.00977 445.08203 L -602.99023 477.71875 L -603.22656 606.00781 C -603.34486 607.75002 -603.43411 609.49145 -603.48438 611.23438 L -603.48438 611.375 L -603.48438 611.52148 C -603.48426 684.85343 -544.07889 744.55874 -471.00195 744.55859 C -397.92501 744.55874 -338.51181 684.85339 -338.51172 611.52148 L -338.51172 611.4707 L -338.51172 611.42578 C -338.53251 609.30932 -338.61121 607.19081 -338.73242 605.07812 L -338.50391 478.61914 L -394.51953 446.01953 C -400.96276 441.45517 -407.79487 437.47468 -414.94336 434.13086 L -470.4707 401.81836 z "
       id="path917"
       transform="scale(0.26458333)" />
    <path
       style="opacity:0.986;fill:#0a0000;fill-opacity:1;stroke-width:305.24398804;stroke-miterlimit:4;stroke-dasharray:none"
       d="m -124.48955,109.36955 -13.53922,7.75457 -0.003,0.002 c -1.79089,0.81895 -3.5038,1.80003 -5.11752,2.93109 -0.16002,0.11276 -0.31902,0.22696 -0.47698,0.34261 0.15796,-0.11565 0.31696,-0.22985 0.47698,-0.34261 l -13.74852,7.87445 -0.0599,32.48019 c -0.0329,0.46161 -0.0559,0.92388 -0.0692,1.38648 2e-5,17.97888 14.50975,32.55361 32.40836,32.55357 17.89861,4e-5 32.408327,-14.5747 32.40835,-32.55357 -0.0054,-0.55352 -0.02488,-1.10681 -0.05839,-1.65933 l 0.05839,-31.98358 -13.58728,-7.90753 c -1.64518,-1.17603 -3.39619,-2.19504 -5.23017,-3.04374 l -0.003,-0.002 z"
       id="path872" />
    <path
       style="opacity:0.986;fill:#0a0000;fill-opacity:1;stroke-width:305.24398804;stroke-miterlimit:4;stroke-dasharray:none"
       d="m -125.14791,123.68806 c -0.4159,0.007 -0.83162,0.0216 -1.24695,0.0444 0.41533,-0.0228 0.83105,-0.0376 1.24695,-0.0444 z"
       id="path870" />
    <path
       style="opacity:0.986;fill:#0a0000;fill-opacity:1;stroke-width:305.24398804;stroke-miterlimit:4;stroke-dasharray:none"
       d="m -128.57147,123.90768 c -0.38251,0.0397 -0.76429,0.0862 -1.14515,0.13953 0.38086,-0.0533 0.76264,-0.0999 1.14515,-0.13953 z"
       id="path868" />
    <path
       style="opacity:0.986;fill:#0a0000;fill-opacity:1;stroke-width:305.24398804;stroke-miterlimit:4;stroke-dasharray:none"
       d="m -131.99194,124.46321 c -0.25025,0.0532 -0.49986,0.10934 -0.74879,0.16846 0.24893,-0.0591 0.49854,-0.11528 0.74879,-0.16846 z"
       id="path866" />
    <path
       style="opacity:0.986;fill:#0a0000;fill-opacity:1;stroke-width:305.24398804;stroke-miterlimit:4;stroke-dasharray:none"
       d="m -135.33954,125.38253 c -0.11839,0.0388 -0.23656,0.0782 -0.3545,0.11834 0.11794,-0.0401 0.23611,-0.0796 0.3545,-0.11834 z"
       id="path864" />
    <path
       style="opacity:0.986;fill:#0a0000;fill-opacity:1;stroke-width:305.24398804;stroke-miterlimit:4;stroke-dasharray:none"
       d="m -103.53063,134.16907 0.0336,0.0315 z"
       id="path862"
       inkscape:connector-curvature="0" />
    <path
       style="opacity:0.986;fill:#0a0000;fill-opacity:1;stroke-width:349.50201416;stroke-miterlimit:4;stroke-dasharray:none"
       d="m -97.849433,134.0528 0.03733,0.042 z"
       id="path860"
       inkscape:connector-curvature="0" />
    <path
       style="opacity:0.986;fill:#0a0000;fill-opacity:1;stroke-width:279.42047119;stroke-miterlimit:4;stroke-dasharray:none"
       d="m -124.37833,154.21284 c 0.0163,0.0194 0.0325,0.0388 0.0487,0.0583 -0.0162,-0.0194 -0.0324,-0.0389 -0.0487,-0.0583 z"
       id="path858"
       inkscape:connector-curvature="0" />
    <path
       style="opacity:0.986;fill:#0a0000;fill-opacity:1;stroke-width:279.42047119;stroke-miterlimit:4;stroke-dasharray:none"
       d="m -124.38851,154.18874 c 0.0231,0.0354 0.0461,0.0709 0.0691,0.10646 -0.0229,-0.0357 -0.046,-0.0711 -0.0691,-0.10646 z"
       id="path856"
       inkscape:connector-curvature="0" />
    <path
       style="opacity:0.986;fill:#0a0000;fill-opacity:1;stroke-width:279.42047119;stroke-miterlimit:4;stroke-dasharray:none"
       d="m -124.39891,154.15074 c 0.0302,0.0606 0.0602,0.12149 0.0899,0.18247 -0.0297,-0.061 -0.0597,-0.1218 -0.0899,-0.18247 z"
       id="path854"
       inkscape:connector-curvature="0" />
    <path
       style="opacity:0.986;fill:#0a0000;fill-opacity:1;stroke-width:279.42047119;stroke-miterlimit:4;stroke-dasharray:none"
       d="m -124.39939,154.11466 c 0.0307,0.0847 0.061,0.16954 0.0908,0.25465 -0.0298,-0.0851 -0.0601,-0.17 -0.0908,-0.25465 z"
       id="path852"
       inkscape:connector-curvature="0" />
    <path
       style="opacity:0.986;fill:#0a0000;fill-opacity:1;stroke-width:279.42047119;stroke-miterlimit:4;stroke-dasharray:none"
       d="m -124.39702,154.05857 c 0.0295,0.12192 0.0583,0.24417 0.0861,0.36682 -0.0279,-0.12263 -0.0566,-0.2449 -0.0861,-0.36682 z"
       id="path850"
       inkscape:connector-curvature="0" />
    <path
       style="opacity:0.986;fill:#0a0000;fill-opacity:1;stroke-width:349.50201416;stroke-miterlimit:4;stroke-dasharray:none"
       d="m -124.39185,153.93788 c 0.027,0.20214 0.0523,0.40487 0.0757,0.6082 -0.0235,-0.20331 -0.0487,-0.40606 -0.0757,-0.6082 z"
       id="path845"
       inkscape:connector-curvature="0" />
    <path
       id="path902"
       d="m -124.48653,109.36753 -13.53924,7.75459 -0.003,0.002 c -1.7909,0.81895 -3.50381,1.80003 -5.11753,2.93109 -0.16002,0.11276 -0.31902,0.22696 -0.47698,0.34261 0.15796,-0.11565 0.31696,-0.22985 0.47698,-0.34261 l -13.74855,7.87447 -0.0599,32.48025 c -0.0329,0.46161 -0.0559,0.92388 -0.0692,1.38648 2e-5,17.97891 14.50978,32.55367 32.40842,32.55363 17.89864,4e-5 32.408388,-14.57473 32.408411,-32.55363 -0.0054,-0.55352 -0.02488,-1.10681 -0.05839,-1.65933 l 0.05839,-31.98364 -13.587301,-7.90755 c -1.64519,-1.17603 -3.3962,-2.19504 -5.23018,-3.04374 l -0.003,-0.002 z"
       style="opacity:0.986;fill:#000000;fill-opacity:1;stroke-width:305.24456787;stroke-miterlimit:4;stroke-dasharray:none"
       inkscape:connector-curvature="0" />
    <path
       style="color:#000000;font-style:normal;font-variant:normal;font-weight:normal;font-stretch:normal;font-size:medium;line-height:normal;font-family:sans-serif;font-variant-ligatures:normal;font-variant-position:normal;font-variant-caps:normal;font-variant-numeric:normal;font-variant-alternates:normal;font-feature-settings:normal;text-indent:0;text-align:start;text-decoration:none;text-decoration-line:none;text-decoration-style:solid;text-decoration-color:#000000;letter-spacing:normal;word-spacing:normal;text-transform:none;writing-mode:lr-tb;direction:ltr;text-orientation:mixed;dominant-baseline:auto;baseline-shift:baseline;text-anchor:start;white-space:normal;shape-padding:0;clip-rule:nonzero;display:inline;overflow:visible;visibility:visible;opacity:0.986;isolation:auto;mix-blend-mode:normal;color-interpolation:sRGB;color-interpolation-filters:linearRGB;solid-color:#000000;solid-opacity:1;vector-effect:none;fill:#000000;fill-opacity:1;fill-rule:nonzero;stroke:none;stroke-width:6.10100317;stroke-linecap:butt;stroke-linejoin:miter;stroke-miterlimit:4;stroke-dasharray:none;stroke-dashoffset:0;stroke-opacity:1;color-rendering:auto;image-rendering:auto;shape-rendering:auto;text-rendering:auto;enable-background:accumulate"
       d="m -171.82511,152.55887 v 3.20072 19.74466 l 94.942278,-20.10834 v -22.94538 z"
       id="path946"
       inkscape:connector-curvature="0" />
    <rect
       style="opacity:0.986;fill:#ffffff;fill-opacity:1;stroke:none;stroke-width:5.27145243;stroke-miterlimit:4;stroke-dasharray:none"
       id="rect938"
       width="91.106628"
       height="17.397633"
       x="-172.66579"
       y="118.80869"
       transform="matrix(0.97829879,-0.20719914,0,1,0,0)" />
    <text
       xml:space="preserve"
       style="font-style:normal;font-variant:normal;font-weight:normal;font-stretch:normal;font-size:11.35363102px;line-height:1.25;font-family:sans-serif;-inkscape-font-specification:'sans-serif, Normal';font-variant-ligatures:normal;font-variant-caps:normal;font-variant-numeric:normal;font-feature-settings:normal;text-align:start;letter-spacing:0px;word-spacing:0px;writing-mode:lr-tb;text-anchor:start;opacity:0.98600003;fill:#000000;fill-opacity:1;stroke:none;stroke-width:0.28384069"
       x="-165.39059"
       y="131.60956"
       id="text932"
       transform="skewY(-11.958265)"><tspan
         sodipodi:role="line"
         id="tspan930"
         x="-165.39059"
         y="131.60956"
         style="font-style:normal;font-variant:normal;font-weight:normal;font-stretch:normal;font-size:11.35363102px;font-family:sans-serif;-inkscape-font-specification:'sans-serif, Normal';font-variant-ligatures:normal;font-variant-caps:normal;font-variant-numeric:normal;font-feature-settings:normal;text-align:start;writing-mode:lr-tb;text-anchor:start;stroke-width:0.28384069">LOGO DESIGN</tspan></text>
    <g
       aria-label="TRUST &amp; LOVE"
       style="font-style:normal;font-variant:normal;font-weight:bold;font-stretch:normal;font-size:6.80437803px;line-height:1.25;font-family:Aharoni;-inkscape-font-specification:'Aharoni, Bold';font-variant-ligatures:normal;font-variant-caps:normal;font-variant-numeric:normal;font-feature-settings:normal;text-align:start;letter-spacing:1.32291663px;word-spacing:0px;writing-mode:lr-tb;text-anchor:start;fill:#ffffff;fill-opacity:1;stroke:none;stroke-width:0.3402102;opacity:0.986"
       id="text959">
      <path
         d="m -144.87453,177.85267 -0.52926,-0.82099 -2.98236,1.92263 -0.63908,-0.99132 2.98236,-1.92263 -0.52026,-0.80703 0.82936,-0.53466 1.68861,2.61934 z"
         style="fill:#ffffff"
         id="path966" />
      <path
         d="m -144.12126,183.96011 -1.01338,-1.06283 0.48508,-2.01414 -1.26001,1.20138 -0.81392,-0.85364 3.28229,-3.12955 1.26558,1.32734 q 0.55484,0.58192 0.47212,1.19329 -0.0658,0.49428 -0.44575,0.85653 -0.43523,0.41498 -0.94254,0.4029 -0.32412,-0.008 -0.66646,-0.23677 z m 1.07791,-3.32306 q 0.17553,-0.16737 0.17425,-0.40945 -0.002,-0.22799 -0.25611,-0.4949 l -0.15132,-0.1587 -0.81997,0.78181 0.15132,0.15871 q 0.25678,0.26931 0.48214,0.27938 0.24415,0.0105 0.41969,-0.15685 z"
         style="fill:#ffffff"
         id="path968" />
      <path
         d="m -138.35207,185.72787 q -0.22713,0.33974 -0.44302,0.5431 -0.33491,0.31564 -0.86303,0.40618 -0.74841,0.12712 -1.51626,-0.38622 -0.78166,-0.52257 -0.92538,-1.2581 -0.0769,-0.38712 0.072,-0.79515 0.10542,-0.28921 0.3861,-0.70904 l 1.45323,-2.17374 0.98053,0.65553 -1.3646,2.04115 q -0.16434,0.24583 -0.2373,0.3729 -0.22905,0.40239 -0.007,0.77035 0.0901,0.15216 0.25031,0.25926 0.35906,0.24005 0.7094,0.11057 0.25905,-0.0946 0.61359,-0.62489 l 1.3646,-2.04116 0.98053,0.65553 z"
         style="fill:#ffffff"
         id="path970" />
      <path
         d="m -133.90174,188.11265 q -0.42771,1.06704 -1.49502,1.01506 -0.37263,-0.0169 -0.74887,-0.16774 -0.78949,-0.31645 -1.27326,-1.06518 l 0.82229,-0.6941 q 0.31542,0.64187 0.78727,0.831 0.21279,0.0853 0.40037,0.0459 0.2172,-0.0418 0.29879,-0.24533 0.0742,-0.18504 -0.0676,-0.38504 -0.10477,-0.14938 -0.4026,-0.37972 -0.35887,-0.28345 -0.44518,-0.37174 -0.1381,-0.13768 -0.21697,-0.28025 -0.22489,-0.4123 9e-5,-0.97357 0.23487,-0.58595 0.73787,-0.83175 0.58879,-0.29017 1.26725,-0.0182 0.68155,0.27319 1.19813,0.87757 l -0.77909,0.67563 q -0.24649,-0.42095 -0.61039,-0.56682 -0.17578,-0.0705 -0.35041,-0.0366 -0.19807,0.0387 -0.26606,0.20834 -0.0668,0.16653 0.0917,0.36963 0.0703,0.0926 0.47847,0.41371 0.51179,0.40201 0.63365,0.81238 0.10648,0.35051 -0.0604,0.76684 z"
         style="fill:#ffffff"
         id="path972" />
      <path
         d="m -129.09405,187.14791 -0.95569,-0.20202 -0.73385,3.47167 -1.15397,-0.24394 0.73385,-3.47166 -0.93943,-0.19858 0.20408,-0.96543 3.04908,0.64453 z"
         style="fill:#ffffff"
         id="path974" />
      <path
         d="m -121.27899,189.93551 -0.33888,0.87426 q -0.38178,-0.18561 -0.63826,-0.38808 -0.45732,0.48388 -1.17922,0.54261 -0.60601,0.0493 -1.02737,-0.21309 -0.47014,-0.28843 -0.51783,-0.87457 -0.0566,-0.69542 0.78603,-1.23731 -0.29051,-0.29304 -0.35104,-0.38145 -0.14308,-0.2017 -0.16598,-0.48318 -0.0337,-0.41394 0.31789,-0.72255 0.33609,-0.29402 0.8262,-0.33389 0.52322,-0.0426 0.88782,0.17778 0.38913,0.23502 0.42469,0.67213 0.0458,0.56296 -0.7159,1.07494 l 0.55862,0.47457 q 0.10063,-0.23819 0.1217,-0.42991 l 0.80888,0.19086 q -0.0712,0.43581 -0.26919,0.78859 0.17716,0.12893 0.47184,0.26829 z m -1.82905,-2.24126 q -0.0124,-0.15233 -0.12948,-0.23948 -0.11406,-0.0907 -0.25314,-0.0794 -0.12584,0.0102 -0.21648,0.0843 -0.11248,0.0925 -0.10036,0.2415 0.0143,0.17551 0.14042,0.29192 l 0.21289,0.19935 0.20367,-0.15991 q 0.15972,-0.12633 0.14248,-0.33826 z m 0.23445,2.14432 -0.84814,-0.71436 q -0.33458,0.23056 -0.30198,0.63125 0.0135,0.16558 0.17407,0.29585 0.16391,0.13 0.31624,0.11761 0.4007,-0.0326 0.65981,-0.33035 z"
         style="fill:#ffffff"
         id="path976" />
      <path
         d="m -113.63763,188.45024 -2.42257,0.92968 -1.62485,-4.23408 1.10117,-0.42258 1.27131,3.31282 1.32141,-0.5071 z"
         style="fill:#ffffff"
         id="path978" />
      <path
         d="m -108.97079,183.19462 q 0.48885,0.78368 0.33661,1.70097 -0.17453,1.04476 -1.18935,1.67781 -1.01201,0.63128 -2.02708,0.32858 -0.89078,-0.26667 -1.37963,-1.05034 -0.22332,-0.35801 -0.31625,-0.82085 -0.0947,-0.46566 -0.0249,-0.88117 0.17453,-1.04477 1.18935,-1.67781 1.01483,-0.63304 2.0299,-0.33034 0.89078,0.26667 1.38139,1.05315 z m -1.0402,0.64887 q -0.25321,-0.40593 -0.6972,-0.54014 -0.56827,-0.17024 -1.06722,0.141 -0.34391,0.21453 -0.50166,0.58313 -0.1595,0.36577 -0.0774,0.76099 0.0466,0.22543 0.16446,0.4143 0.24266,0.38902 0.69368,0.53451 0.55875,0.1801 1.06616,-0.13642 0.50742,-0.31653 0.59596,-0.89649 0.0712,-0.4634 -0.17675,-0.86088 z"
         style="fill:#ffffff"
         id="path980" />
      <path
         d="m -106.30716,177.52846 1.80335,4.58852 -0.65351,0.64328 -4.54053,-1.89423 0.91397,-0.89965 2.71349,1.19847 -1.14837,-2.73907 z"
         style="fill:#ffffff"
         id="path982" />
      <path
         d="m -100.56895,177.19187 -1.47534,2.11843 -3.72156,-2.59181 1.47534,-2.11843 0.80974,0.56393 -0.80128,1.15055 0.62981,0.43862 0.7576,-1.08784 0.80975,0.56393 -0.7576,1.08784 0.66252,0.4614 0.80127,-1.15055 z"
         style="fill:#ffffff"
         id="path984" />
    </g>
    <path
       sodipodi:type="star"
       style="opacity:0.98600003;fill:#ffffff;fill-opacity:1;stroke:none;stroke-width:6.3499999;stroke-miterlimit:4;stroke-dasharray:none"
       id="path989"
       sodipodi:sides="5"
       sodipodi:cx="-219.33958"
       sodipodi:cy="131.37083"
       sodipodi:r1="28.270823"
       sodipodi:r2="10.601559"
       sodipodi:arg1="1.0471976"
       sodipodi:arg2="1.6755161"
       inkscape:flatsided="false"
       inkscape:rounded="0"
       inkscape:randomized="0"
       d="m -205.20417,155.85409 -15.24358,-13.93977 -17.80871,10.46583 8.54699,-18.80513 -15.4568,-13.70297 20.52591,2.31757 8.25588,-18.93474 4.13872,20.23746 20.55921,2.00066 -17.96803,10.18988 z"
       inkscape:transform-center-x="0.00068329028"
       inkscape:transform-center-y="-0.51353187"
       transform="matrix(0.1894149,-0.01998703,0.01998703,0.1894149,-85.694128,147.82516)" />
    <path
       style="fill:#ffffff;stroke-width:0.02809658"
       d="m -126.37201,140.48582 c 0.0386,-0.007 0.25768,-0.0581 0.48676,-0.11307 0.44394,-0.10667 0.48154,-0.13032 0.40972,-0.25828 -0.0626,-0.11161 -0.17876,-0.16296 -0.64531,-0.2854 -0.23859,-0.0626 -0.4885,-0.1403 -0.55535,-0.17265 -0.30966,-0.1498 -0.23558,-0.52483 0.12908,-0.65349 0.0658,-0.0232 0.34174,-0.0749 0.61315,-0.11467 0.5565,-0.0817 0.64032,-0.10841 0.94374,-0.30128 0.48448,-0.30787 0.55648,-0.54097 0.24163,-0.78228 -0.22323,-0.1711 -0.33098,-0.28789 -0.33098,-0.35878 0,-0.0782 -0.0301,-0.0795 0.54788,0.0222 0.22838,0.0402 0.45956,0.0597 0.71647,0.0604 0.58707,0.001 0.89255,-0.0776 1.60098,-0.41487 l 0.37876,-0.18033 0.19721,0.0987 c 0.10851,0.0544 0.2794,0.17007 0.37984,0.25725 0.20603,0.17885 1.37122,1.05289 2.0089,1.50693 0.55546,0.39548 0.70168,0.52999 0.91536,0.84198 0.35537,0.51883 0.45647,0.58615 0.91092,0.60655 0.68451,0.0307 1.31031,-0.24739 1.41638,-0.62939 0.0376,-0.13569 0.0376,-0.16668 2.2e-4,-0.30167 -0.071,-0.25566 -0.35933,-0.44686 -1.0654,-0.70649 -0.51342,-0.18881 -0.79812,-0.3371 -0.96652,-0.50347 -0.44737,-0.44196 -0.96341,-1.12604 -1.08792,-1.44223 -0.0727,-0.18454 -0.0941,-0.62304 -0.0333,-0.68387 0.0259,-0.026 0.10168,-0.0189 0.33715,0.0316 0.38558,0.0827 0.81811,0.0895 1.06227,0.0167 0.39966,-0.11918 0.60999,-0.34543 0.76071,-0.81836 0.0345,-0.10819 0.0801,-0.20022 0.10136,-0.20456 0.0621,-0.0127 0.20973,0.15207 0.3533,0.39428 0.17312,0.29203 0.38872,0.47732 1.11667,0.95967 0.65136,0.43162 0.85532,0.59442 1.07005,0.85412 0.22028,0.26643 0.33564,0.5194 0.40602,0.89045 0.11556,0.60922 0.2046,0.77571 0.48545,0.90773 0.18558,0.0873 0.33764,0.11637 0.60932,0.11677 0.50455,7.4e-4 0.86405,-0.18915 0.95919,-0.50669 0.0824,-0.27498 -0.0722,-0.51305 -0.63895,-0.98475 -0.40845,-0.33987 -0.52625,-0.46064 -1.02435,-1.05028 -0.42258,-0.50025 -0.60446,-0.79417 -1.02745,-1.66049 -0.32223,-0.65991 -0.41785,-0.88798 -0.60451,-1.44177 -0.12196,-0.36181 -0.26893,-0.74526 -0.3266,-0.85211 -0.16146,-0.29918 -0.35753,-0.49789 -0.70586,-0.7154 -0.007,-0.004 0.0225,-0.1082 0.0634,-0.23195 0.0974,-0.29471 0.13506,-0.66759 0.10212,-1.01083 -0.0296,-0.30826 -0.0597,-0.46963 -0.23583,-1.26614 -0.16882,-0.76334 -0.17325,-0.81634 -0.10234,-1.22219 0.1819,-1.04094 0.0551,-1.91148 -0.39193,-2.69113 -0.13559,-0.23648 -0.13973,-0.24991 -0.10038,-0.32591 0.061,-0.11788 0.20402,-0.23209 0.49747,-0.39711 0.14456,-0.0813 0.31658,-0.18461 0.38223,-0.22956 0.19531,-0.13374 0.26083,-0.33105 0.14754,-0.44435 -0.0762,-0.0761 -0.16687,-0.0709 -0.47903,0.0276 -0.265,0.0837 -0.37592,0.0999 -0.45991,0.0677 -0.0799,-0.0307 -0.0456,-0.0793 0.14611,-0.20707 0.25567,-0.17036 0.69359,-0.61189 0.87604,-0.88328 0.62819,-0.93438 0.71032,-1.99988 0.19707,-2.55669 -0.0602,-0.0653 -0.17375,-0.15379 -0.25224,-0.1965 l -0.14269,-0.0777 0.0152,0.0655 c 0.009,0.0361 0.0409,0.17307 0.0723,0.30442 0.0756,0.31575 0.10179,0.78581 0.0566,1.01628 -0.0693,0.35346 -0.26966,0.64767 -0.58879,0.86438 -0.23495,0.15955 -0.93684,0.50281 -0.98698,0.48268 -0.0237,-0.01 -0.1384,-0.0773 -0.25489,-0.15053 -0.1165,-0.0734 -0.28231,-0.1575 -0.36846,-0.18714 -0.44662,-0.15366 -1.03249,-0.1501 -1.80607,0.011 -0.51291,0.10678 -0.50965,0.10678 -0.98109,0.009 -0.47803,-0.0994 -0.84051,-0.0201 -1.32201,0.28924 l -0.22394,0.14386 -0.16941,-0.0597 c -0.0932,-0.0328 -0.31481,-0.0785 -0.49251,-0.10136 -0.44048,-0.0566 -0.56852,-0.0859 -0.72663,-0.16609 -0.16945,-0.0858 -0.29801,-0.23067 -0.40188,-0.45265 -0.13833,-0.29559 -0.16914,-0.49875 -0.18421,-1.21502 -0.0121,-0.5746 -0.0189,-0.64999 -0.0556,-0.61956 -0.0713,0.0591 -0.37246,0.68958 -0.47924,1.00321 -0.0917,0.26945 -0.1019,0.3289 -0.10342,0.60772 -10e-4,0.26162 0.008,0.32964 0.0601,0.44303 0.10147,0.21978 0.29377,0.37995 0.71364,0.59446 0.20706,0.1058 0.41756,0.22288 0.46781,0.26021 0.17272,0.12839 0.22161,0.32638 0.12635,0.51186 -0.035,0.0683 -0.10944,0.12959 -0.25984,0.21423 -0.24611,0.13846 -0.28975,0.21058 -0.21821,0.36061 0.066,0.13831 0.23221,0.20609 0.70023,0.28552 0.69521,0.11799 0.76941,0.17642 0.89976,0.70854 0.0832,0.33982 0.0828,0.85575 -10e-4,1.17319 -0.21817,0.82579 -0.96276,1.66138 -1.67568,1.88047 -0.55785,0.17143 -0.93681,0.42383 -1.76065,1.17267 -0.28336,0.25754 -0.60749,0.54342 -0.7203,0.63528 l -0.20513,0.16703 -0.28657,0.0191 c -0.93538,0.0622 -1.61816,0.26719 -3.15458,0.94725 -0.31026,0.13733 -0.58093,0.24969 -0.60149,0.24969 -0.0939,0 -1.14773,-0.69149 -1.49236,-0.97922 -0.39607,-0.33069 -0.52937,-0.55781 -0.43882,-0.74768 0.0969,-0.20318 0.43535,-0.31635 1.43104,-0.47851 1.08067,-0.17599 1.42798,-0.26421 1.80019,-0.45721 0.55357,-0.28703 0.6519,-0.79186 0.26093,-1.33975 -0.15254,-0.21377 -0.37327,-0.40195 -0.8969,-0.76459 -0.63361,-0.43883 -0.90979,-0.68115 -1.02538,-0.89967 -0.0521,-0.0984 -0.0378,-0.34862 0.0378,-0.66033 0.0853,-0.35228 0.089,-0.52225 0.0143,-0.66858 -0.0741,-0.14535 -0.20838,-0.24344 -0.44632,-0.3262 -0.18755,-0.0652 -0.53732,-0.1219 -0.53732,-0.087 0,0.009 0.0193,0.09 0.0429,0.17961 0.0648,0.24608 0.0238,0.37402 -0.2277,0.71197 -0.36487,0.49026 -0.44901,0.73476 -0.42508,1.23508 0.0192,0.40053 0.0335,0.42949 0.26478,0.53536 0.34784,0.15921 0.72262,0.30119 1.31677,0.49884 0.72311,0.24054 0.87271,0.30621 1.0321,0.45315 0.15765,0.14531 0.20545,0.30127 0.15977,0.52133 -0.0168,0.0811 -0.0458,0.16817 -0.0645,0.19359 -0.0259,0.0354 -0.21542,0.0729 -0.80656,0.15987 -1.45565,0.21414 -2.0096,0.37655 -2.36051,0.69204 -0.55425,0.49832 -0.16773,1.2686 1.17343,2.33851 0.22021,0.17568 0.40038,0.33042 0.40038,0.34389 0,0.0663 -0.27107,0.30294 -0.60701,0.52992 -0.75987,0.51344 -1.01276,0.76944 -1.27566,1.29145 -0.0506,0.10038 -0.17512,0.28911 -0.27677,0.41928 -0.10168,0.13017 -0.37594,0.52214 -0.60954,0.87103 -0.40675,0.60749 -0.43178,0.63831 -0.59094,0.72778 -0.64148,0.36057 -0.95588,0.88365 -1.17738,1.95884 -0.0409,0.19841 -0.0878,0.38678 -0.10418,0.41858 -0.0417,0.0806 -0.17292,0.24004 -0.51132,0.62119 -0.45281,0.51 -0.57553,0.76493 -0.49601,1.03034 0.0738,0.24623 0.22932,0.30215 0.68049,0.24465 0.46365,-0.0591 0.47512,-0.0769 0.58527,-0.91018 0.0163,-0.12308 0.0473,-0.25071 0.0688,-0.2836 0.0216,-0.0329 0.1082,-0.0935 0.19243,-0.13478 0.22349,-0.10935 0.38004,-0.29458 0.57934,-0.68549 0.1019,-0.19982 0.21148,-0.37383 0.26513,-0.42094 0.057,-0.05 0.22326,-0.12615 0.44117,-0.20191 0.42989,-0.1495 0.78748,-0.31432 1.19437,-0.55055 0.49873,-0.28953 0.60787,-0.33191 0.8903,-0.34565 0.32662,-0.0158 0.32987,-0.0127 0.33111,0.32849 7.6e-4,0.31167 0.0553,0.65376 0.12558,0.7926 0.16418,0.32442 0.37224,0.32097 0.81469,-0.0136 0.10819,-0.0818 0.21182,-0.1573 0.23034,-0.16782 0.0207,-0.0118 0.0784,0.0413 0.15003,0.13838 0.29215,0.39548 0.64933,0.43062 0.98444,0.0969 0.0708,-0.0704 0.17243,-0.20309 0.22602,-0.29483 0.11898,-0.20361 0.17064,-0.22002 0.64446,-0.2047 0.3067,0.01 0.33714,0.0164 0.54788,0.11622 0.33448,0.15846 0.49007,0.32914 0.49007,0.53756 0,0.217 -0.14232,0.38137 -0.72123,0.83292 -0.2623,0.20458 -0.32304,0.2671 -0.3875,0.39886 -0.0838,0.17115 -0.081,0.25373 0.0148,0.44289 0.16042,0.31702 0.53441,0.46545 1.55759,0.6182 0.58699,0.0876 0.9196,0.11657 1.05362,0.0917 z"
       id="path1011"
       inkscape:connector-curvature="0" />
  </g>
</svg>
