<?xml version="1.0" encoding="UTF-8" standalone="no"?>
<!-- Created with Inkscape (http://www.inkscape.org/) -->

<svg
   xmlns:dc="http://purl.org/dc/elements/1.1/"
   xmlns:cc="http://creativecommons.org/ns#"
   xmlns:rdf="http://www.w3.org/1999/02/22-rdf-syntax-ns#"
   xmlns:svg="http://www.w3.org/2000/svg"
   xmlns="http://www.w3.org/2000/svg"
   xmlns:xlink="http://www.w3.org/1999/xlink"
   xmlns:sodipodi="http://sodipodi.sourceforge.net/DTD/sodipodi-0.dtd"
   xmlns:inkscape="http://www.inkscape.org/namespaces/inkscape"
   width="210mm"
   height="297mm"
   viewBox="0 0 210 297"
   version="1.1"
   id="svg8"
   inkscape:version="0.92.3 (2405546, 2018-03-11)"
   sodipodi:docname="Logo13.svg">
  <defs
     id="defs2">
    <linearGradient
       inkscape:collect="always"
       id="linearGradient955">
      <stop
         style="stop-color:#007800;stop-opacity:1"
         offset="0"
         id="stop951" />
      <stop
         id="stop961"
         offset="0.5144586"
         style="stop-color:#1aae1a;stop-opacity:0.78431374" />
      <stop
         style="stop-color:#2dff2d;stop-opacity:0.78431374"
         offset="1"
         id="stop953" />
    </linearGradient>
    <linearGradient
       inkscape:collect="always"
       id="linearGradient947">
      <stop
         style="stop-color:#007800;stop-opacity:1"
         offset="0"
         id="stop943" />
      <stop
         style="stop-color:#2dff2d;stop-opacity:0.78431374"
         offset="1"
         id="stop945" />
    </linearGradient>
    <linearGradient
       inkscape:collect="always"
       id="linearGradient921">
      <stop
         style="stop-color:#ffffff;stop-opacity:1;"
         offset="0"
         id="stop917" />
      <stop
         id="stop959"
         offset="0"
         style="stop-color:#37c800;stop-opacity:0.84313726" />
      <stop
         id="stop933"
         offset="0"
         style="stop-color:#ffffff;stop-opacity:0.60784314;" />
      <stop
         style="stop-color:#ffffff;stop-opacity:0;"
         offset="1"
         id="stop919" />
    </linearGradient>
    <linearGradient
       inkscape:collect="always"
       xlink:href="#linearGradient921"
       id="linearGradient923"
       x1="87.577087"
       y1="134.2812"
       x2="105.16037"
       y2="132.03224"
       gradientUnits="userSpaceOnUse"
       gradientTransform="matrix(0.87928164,0,0,0.87928193,11.721316,16.210168)" />
    <linearGradient
       inkscape:collect="always"
       xlink:href="#linearGradient947"
       id="linearGradient949"
       x1="385.05511"
       y1="505.51953"
       x2="321.90198"
       y2="497.51953"
       gradientUnits="userSpaceOnUse"
       gradientTransform="matrix(0.87928164,0,0,0.87928193,44.30104,61.266777)" />
    <linearGradient
       inkscape:collect="always"
       xlink:href="#linearGradient955"
       id="linearGradient957"
       x1="385.05511"
       y1="505.51953"
       x2="321.90198"
       y2="497.51953"
       gradientUnits="userSpaceOnUse"
       gradientTransform="matrix(0.87928164,0,0,0.87928193,44.30104,61.266777)" />
  </defs>
  <sodipodi:namedview
     id="base"
     pagecolor="#ffffff"
     bordercolor="#666666"
     borderopacity="1.0"
     inkscape:pageopacity="0.0"
     inkscape:pageshadow="2"
     inkscape:zoom="1"
     inkscape:cx="195.24174"
     inkscape:cy="585.80119"
     inkscape:document-units="mm"
     inkscape:current-layer="layer1"
     showgrid="false"
     showborder="false"
     showguides="true"
     inkscape:guide-bbox="true"
     inkscape:object-nodes="false"
     inkscape:snap-smooth-nodes="false"
     inkscape:measure-start="247,670"
     inkscape:measure-end="0,0"
     inkscape:window-width="1366"
     inkscape:window-height="705"
     inkscape:window-x="-8"
     inkscape:window-y="-8"
     inkscape:window-maximized="1" />
  <metadata
     id="metadata5">
    <rdf:RDF>
      <cc:Work
         rdf:about="">
        <dc:format>image/svg+xml</dc:format>
        <dc:type
           rdf:resource="http://purl.org/dc/dcmitype/StillImage" />
        <dc:title />
      </cc:Work>
    </rdf:RDF>
  </metadata>
  <g
     inkscape:label="Layer 1"
     inkscape:groupmode="layer"
     id="layer1">
    <rect
       style="opacity:1;fill:#ffffff;fill-opacity:1;stroke:none;stroke-width:0.5;stroke-miterlimit:4;stroke-dasharray:none;stroke-opacity:1"
       id="rect847"
       width="119.0625"
       height="83.079163"
       x="22.748487"
       y="78.977242"
       rx="0.011645583"
       ry="0.25556263" />
    <g
       id="g869">
      <g
         style="stroke-width:0.87928176"
         id="g915"
         transform="matrix(1.137292,0,0,1.1372916,-28.147226,-39.602355)">
        <g
           style="stroke-width:0.87928176"
           id="g910">
          <path
             id="path841"
             transform="scale(0.26458333)"
             d="M 366.97852,456.5332 A 50.978259,50.985837 0 0 0 316,507.51953 a 50.978259,50.985837 0 0 0 50.97852,50.98633 h 50.97656 v -50.94727 a 50.978259,50.985837 0 0 0 0.002,-0.0391 50.978259,50.985837 0 0 0 -50.97851,-50.98633 z m 0,26.00391 a 24.978257,24.98197 0 0 1 24.97851,24.98242 24.978257,24.98197 0 0 1 -24.97851,24.98242 A 24.978257,24.98197 0 0 1 342,507.51953 24.978257,24.98197 0 0 1 366.97852,482.53711 Z"
             style="opacity:1;fill:url(#linearGradient957);fill-opacity:1;stroke:url(#linearGradient949);stroke-width:1.66163492;stroke-miterlimit:4;stroke-dasharray:none;stroke-opacity:1"
             inkscape:connector-curvature="0" />
          <path
             style="opacity:0.622;fill:url(#linearGradient923);fill-opacity:1;stroke:none;stroke-width:0.43964088;stroke-miterlimit:4;stroke-dasharray:none;stroke-opacity:1"
             d="m 97.096329,124.76054 a 9.5192475,9.5206626 0 0 1 9.519251,9.52067 9.5192475,9.5206626 0 0 1 -9.519251,9.52065 9.5192475,9.5206626 0 0 1 -9.519242,-9.52065 9.5192475,9.5206626 0 0 1 9.519242,-9.52067 z"
             id="path868"
             inkscape:connector-curvature="0" />
        </g>
      </g>
      <g
         id="g1061">
        <g
           transform="translate(-5.0079738)"
           id="text965"
           style="font-style:normal;font-variant:normal;font-weight:normal;font-stretch:normal;font-size:7.05555534px;line-height:1.25;font-family:'Arial Rounded MT Bold';-inkscape-font-specification:'Arial Rounded MT Bold, Normal';font-variant-ligatures:normal;font-variant-caps:normal;font-variant-numeric:normal;font-feature-settings:normal;text-align:start;letter-spacing:0px;word-spacing:0px;writing-mode:lr-tb;text-anchor:start;fill:#000000;fill-opacity:1;stroke:none;stroke-width:0.26458332"
           aria-label="LOGO DESIGNER">
          <path
             inkscape:connector-curvature="0"
             id="path967"
             style="font-style:normal;font-variant:normal;font-weight:normal;font-stretch:normal;font-size:7.05555534px;font-family:'Arial Rounded MT Bold';-inkscape-font-specification:'Arial Rounded MT Bold, Normal';font-variant-ligatures:normal;font-variant-caps:normal;font-variant-numeric:normal;font-feature-settings:normal;text-align:start;writing-mode:lr-tb;text-anchor:start;stroke-width:0.26458332"
             d="m 58.703736,133.46891 v 3.67591 h 2.073947 q 0.248047,0 0.378961,0.12058 0.134358,0.12058 0.134358,0.30317 0,0.18604 -0.130913,0.30317 -0.130914,0.11369 -0.382406,0.11369 H 58.30755 q -0.334174,0 -0.482314,-0.14814 -0.144694,-0.14814 -0.144694,-0.47887 v -3.88951 q 0,-0.31006 0.137804,-0.46509 0.141249,-0.15503 0.368625,-0.15503 0.230822,0 0.372071,0.15503 0.144694,0.15158 0.144694,0.46509 z" />
          <path
             inkscape:connector-curvature="0"
             id="path969"
             style="font-style:normal;font-variant:normal;font-weight:normal;font-stretch:normal;font-size:7.05555534px;font-family:'Arial Rounded MT Bold';-inkscape-font-specification:'Arial Rounded MT Bold, Normal';font-variant-ligatures:normal;font-variant-caps:normal;font-variant-numeric:normal;font-feature-settings:normal;text-align:start;writing-mode:lr-tb;text-anchor:start;stroke-width:0.26458332"
             d="m 63.843818,132.84879 q 0.785482,0 1.347032,0.32039 0.564996,0.31695 0.854384,0.90606 0.289388,0.58567 0.289388,1.37804 0,0.58567 -0.158474,1.06454 -0.158475,0.47887 -0.475423,0.83027 -0.316949,0.35139 -0.778592,0.53743 -0.461643,0.18604 -1.057644,0.18604 -0.592557,0 -1.06109,-0.18949 -0.468533,-0.19292 -0.782036,-0.54087 -0.313504,-0.34796 -0.475423,-0.83716 -0.158475,-0.48921 -0.158475,-1.05765 0,-0.58222 0.165365,-1.06798 0.168809,-0.48576 0.485758,-0.82682 0.316949,-0.34106 0.771702,-0.52021 0.454752,-0.18259 1.033528,-0.18259 z m 1.45383,2.5976 q 0,-0.55466 -0.179145,-0.96118 -0.179145,-0.40652 -0.513319,-0.61323 -0.330729,-0.21015 -0.761366,-0.21015 -0.306613,0 -0.568441,0.11714 -0.258382,0.11368 -0.447862,0.33417 -0.186035,0.22049 -0.296278,0.565 -0.106798,0.34106 -0.106798,0.76825 0,0.43064 0.106798,0.77859 0.110243,0.34796 0.306613,0.57878 0.199816,0.22738 0.454753,0.34106 0.258382,0.11369 0.564996,0.11369 0.39274,0 0.720024,-0.19637 0.33073,-0.19637 0.523655,-0.60633 0.19637,-0.40997 0.19637,-1.00942 z" />
          <path
             inkscape:connector-curvature="0"
             id="path971"
             style="font-style:normal;font-variant:normal;font-weight:normal;font-stretch:normal;font-size:7.05555534px;font-family:'Arial Rounded MT Bold';-inkscape-font-specification:'Arial Rounded MT Bold, Normal';font-variant-ligatures:normal;font-variant-caps:normal;font-variant-numeric:normal;font-feature-settings:normal;text-align:start;writing-mode:lr-tb;text-anchor:start;stroke-width:0.26458332"
             d="m 71.836439,135.93215 v 0.96807 q 0,0.19293 -0.0379,0.31006 -0.0379,0.11369 -0.141249,0.20671 -0.09991,0.093 -0.258382,0.17914 -0.458198,0.24805 -0.881944,0.36174 -0.423747,0.11369 -0.923286,0.11369 -0.582221,0 -1.061089,-0.17915 -0.478869,-0.17914 -0.816488,-0.52021 -0.337619,-0.34106 -0.520209,-0.82682 -0.179145,-0.48576 -0.179145,-1.08521 0,-0.58911 0.1757,-1.07831 0.175699,-0.48921 0.516764,-0.83027 0.341064,-0.34106 0.830268,-0.52021 0.489203,-0.18259 1.109321,-0.18259 0.509874,0 0.902615,0.1378 0.39274,0.13436 0.637342,0.34107 0.244602,0.2067 0.368625,0.43753 0.124024,0.23082 0.124024,0.40996 0,0.19293 -0.144694,0.33073 -0.141249,0.13436 -0.341065,0.13436 -0.110243,0 -0.213595,-0.0517 -0.09991,-0.0517 -0.16881,-0.14469 -0.18948,-0.29628 -0.320394,-0.44786 -0.130914,-0.15159 -0.354845,-0.25494 -0.220486,-0.10335 -0.564995,-0.10335 -0.354845,0 -0.633898,0.12402 -0.279053,0.12058 -0.478868,0.35485 -0.196371,0.23082 -0.303169,0.56844 -0.103353,0.33762 -0.103353,0.74758 0,0.88884 0.406522,1.36771 0.409966,0.47886 1.140326,0.47886 0.354845,0 0.664904,-0.093 0.313503,-0.093 0.633897,-0.26528 v -0.81993 h -0.792372 q -0.285943,0 -0.434082,-0.0861 -0.144694,-0.0861 -0.144694,-0.29283 0,-0.16881 0.120579,-0.27905 0.124023,-0.11025 0.334174,-0.11025 h 1.160997 q 0.213596,0 0.361735,0.0379 0.148139,0.0379 0.237712,0.16881 0.09302,0.13091 0.09302,0.39274 z" />
          <path
             inkscape:connector-curvature="0"
             id="path973"
             style="font-style:normal;font-variant:normal;font-weight:normal;font-stretch:normal;font-size:7.05555534px;font-family:'Arial Rounded MT Bold';-inkscape-font-specification:'Arial Rounded MT Bold, Normal';font-variant-ligatures:normal;font-variant-caps:normal;font-variant-numeric:normal;font-feature-settings:normal;text-align:start;writing-mode:lr-tb;text-anchor:start;stroke-width:0.26458332"
             d="m 75.040378,132.84879 q 0.785482,0 1.347033,0.32039 0.564995,0.31695 0.854383,0.90606 0.289388,0.58567 0.289388,1.37804 0,0.58567 -0.158474,1.06454 -0.158475,0.47887 -0.475423,0.83027 -0.316949,0.35139 -0.778592,0.53743 -0.461643,0.18604 -1.057644,0.18604 -0.592557,0 -1.06109,-0.18949 -0.468533,-0.19292 -0.782036,-0.54087 -0.313504,-0.34796 -0.475423,-0.83716 -0.158475,-0.48921 -0.158475,-1.05765 0,-0.58222 0.165365,-1.06798 0.16881,-0.48576 0.485758,-0.82682 0.316949,-0.34106 0.771702,-0.52021 0.454752,-0.18259 1.033528,-0.18259 z m 1.453831,2.5976 q 0,-0.55466 -0.179145,-0.96118 -0.179145,-0.40652 -0.51332,-0.61323 -0.330729,-0.21015 -0.761366,-0.21015 -0.306613,0 -0.56844,0.11714 -0.258383,0.11368 -0.447863,0.33417 -0.186035,0.22049 -0.296278,0.565 -0.106798,0.34106 -0.106798,0.76825 0,0.43064 0.106798,0.77859 0.110243,0.34796 0.306613,0.57878 0.199816,0.22738 0.454753,0.34106 0.258382,0.11369 0.564996,0.11369 0.392741,0 0.720025,-0.19637 0.330729,-0.19637 0.523654,-0.60633 0.196371,-0.40997 0.196371,-1.00942 z" />
          <path
             inkscape:connector-curvature="0"
             id="path975"
             style="font-style:normal;font-variant:normal;font-weight:normal;font-stretch:normal;font-size:7.05555534px;font-family:'Arial Rounded MT Bold';-inkscape-font-specification:'Arial Rounded MT Bold, Normal';font-variant-ligatures:normal;font-variant-caps:normal;font-variant-numeric:normal;font-feature-settings:normal;text-align:start;writing-mode:lr-tb;text-anchor:start;stroke-width:0.26458332"
             d="m 80.810914,132.93492 h 1.333252 q 0.520209,0 0.89228,0.0965 0.37207,0.0965 0.675238,0.36174 0.788927,0.67523 0.788927,2.05327 0,0.45476 -0.07924,0.83027 -0.07924,0.37552 -0.244602,0.67868 -0.165364,0.29973 -0.423747,0.53744 -0.20326,0.18259 -0.444417,0.29283 -0.241157,0.11025 -0.520209,0.15503 -0.275608,0.0448 -0.623563,0.0448 h -1.333252 q -0.279052,0 -0.420301,-0.0827 -0.141249,-0.0861 -0.186035,-0.23772 -0.04134,-0.15503 -0.04134,-0.39963 v -3.70347 q 0,-0.33073 0.148139,-0.47887 0.148139,-0.14814 0.478868,-0.14814 z m 0.396186,0.8096 v 3.42787 h 0.775146 q 0.254937,0 0.399631,-0.0138 0.144694,-0.0138 0.299724,-0.0689 0.155029,-0.0551 0.268717,-0.15503 0.513319,-0.43408 0.513319,-1.49517 0,-0.74758 -0.227376,-1.11965 -0.223931,-0.37207 -0.55466,-0.47198 -0.330729,-0.10335 -0.799262,-0.10335 z" />
          <path
             inkscape:connector-curvature="0"
             id="path977"
             style="font-style:normal;font-variant:normal;font-weight:normal;font-stretch:normal;font-size:7.05555534px;font-family:'Arial Rounded MT Bold';-inkscape-font-specification:'Arial Rounded MT Bold, Normal';font-variant-ligatures:normal;font-variant-caps:normal;font-variant-numeric:normal;font-feature-settings:normal;text-align:start;writing-mode:lr-tb;text-anchor:start;stroke-width:0.26458332"
             d="m 88.727742,133.72384 h -2.304769 v 1.24024 h 2.122178 q 0.234267,0 0.347955,0.1068 0.117133,0.10335 0.117133,0.2756 0,0.17226 -0.113688,0.2825 -0.113688,0.1068 -0.3514,0.1068 h -2.122178 v 1.43661 h 2.384006 q 0.241156,0 0.361735,0.11368 0.124023,0.11025 0.124023,0.29628 0,0.17915 -0.124023,0.29283 -0.120579,0.11025 -0.361735,0.11025 h -2.780192 q -0.334174,0 -0.482314,-0.14814 -0.144694,-0.14814 -0.144694,-0.47887 v -3.79649 q 0,-0.22049 0.06546,-0.35829 0.06546,-0.14125 0.203261,-0.20327 0.141249,-0.0654 0.35829,-0.0654 h 2.700955 q 0.244601,0 0.361735,0.11024 0.120578,0.1068 0.120578,0.2825 0,0.17914 -0.120578,0.28939 -0.117134,0.10679 -0.361735,0.10679 z" />
          <path
             inkscape:connector-curvature="0"
             id="path979"
             style="font-style:normal;font-variant:normal;font-weight:normal;font-stretch:normal;font-size:7.05555534px;font-family:'Arial Rounded MT Bold';-inkscape-font-specification:'Arial Rounded MT Bold, Normal';font-variant-ligatures:normal;font-variant-caps:normal;font-variant-numeric:normal;font-feature-settings:normal;text-align:start;writing-mode:lr-tb;text-anchor:start;stroke-width:0.26458332"
             d="m 93.950506,136.46959 q 0,0.45819 -0.237711,0.82337 -0.234267,0.36518 -0.689019,0.57189 -0.454753,0.20671 -1.078315,0.20671 -0.747586,0 -1.233344,-0.2825 -0.34451,-0.20326 -0.561551,-0.54088 -0.213596,-0.34107 -0.213596,-0.66146 0,-0.18604 0.127469,-0.31695 0.130913,-0.13436 0.330729,-0.13436 0.161919,0 0.272162,0.10335 0.113689,0.10336 0.192926,0.30662 0.09646,0.24115 0.206705,0.40307 0.113689,0.16192 0.316949,0.26872 0.203261,0.10335 0.53399,0.10335 0.454753,0 0.73725,-0.21015 0.285943,-0.21359 0.285943,-0.53054 0,-0.25149 -0.155029,-0.40652 -0.151584,-0.15848 -0.396186,-0.24116 -0.241157,-0.0827 -0.647678,-0.1757 -0.544325,-0.12747 -0.91295,-0.29628 -0.36518,-0.17225 -0.582221,-0.46508 -0.213596,-0.29628 -0.213596,-0.73381 0,-0.41686 0.227376,-0.7407 0.227376,-0.32383 0.658013,-0.49609 0.430637,-0.1757 1.012858,-0.1757 0.465088,0 0.802708,0.11713 0.341064,0.11369 0.564995,0.30662 0.223931,0.18948 0.327284,0.39963 0.103353,0.21015 0.103353,0.40996 0,0.18259 -0.130913,0.33073 -0.127469,0.1447 -0.320394,0.1447 -0.1757,0 -0.268718,-0.0861 -0.08957,-0.0896 -0.19637,-0.28939 -0.137804,-0.28594 -0.330729,-0.44441 -0.192926,-0.16192 -0.620118,-0.16192 -0.396185,0 -0.640787,0.1757 -0.241157,0.17225 -0.241157,0.41685 0,0.15159 0.08268,0.26183 0.08268,0.11024 0.227377,0.18948 0.144694,0.0792 0.292833,0.12402 0.148139,0.0448 0.489203,0.13092 0.427192,0.0999 0.771702,0.22048 0.347954,0.12058 0.589111,0.29284 0.244602,0.17225 0.37896,0.43752 0.137804,0.26183 0.137804,0.64424 z" />
          <path
             inkscape:connector-curvature="0"
             id="path981"
             style="font-style:normal;font-variant:normal;font-weight:normal;font-stretch:normal;font-size:7.05555534px;font-family:'Arial Rounded MT Bold';-inkscape-font-specification:'Arial Rounded MT Bold, Normal';font-variant-ligatures:normal;font-variant-caps:normal;font-variant-numeric:normal;font-feature-settings:normal;text-align:start;writing-mode:lr-tb;text-anchor:start;stroke-width:0.26458332"
             d="m 94.866902,137.44799 v -3.97908 q 0,-0.31006 0.141249,-0.46509 0.141249,-0.15503 0.36518,-0.15503 0.230821,0 0.37207,0.15503 0.144694,0.15158 0.144694,0.46509 v 3.97908 q 0,0.31351 -0.144694,0.46854 -0.141249,0.15503 -0.37207,0.15503 -0.220486,0 -0.36518,-0.15503 -0.141249,-0.15848 -0.141249,-0.46854 z" />
          <path
             inkscape:connector-curvature="0"
             id="path983"
             style="font-style:normal;font-variant:normal;font-weight:normal;font-stretch:normal;font-size:7.05555534px;font-family:'Arial Rounded MT Bold';-inkscape-font-specification:'Arial Rounded MT Bold, Normal';font-variant-ligatures:normal;font-variant-caps:normal;font-variant-numeric:normal;font-feature-settings:normal;text-align:start;writing-mode:lr-tb;text-anchor:start;stroke-width:0.26458332"
             d="m 101.6434,135.93215 v 0.96807 q 0,0.19293 -0.0379,0.31006 -0.0379,0.11369 -0.14125,0.20671 -0.0999,0.093 -0.25838,0.17914 -0.4582,0.24805 -0.88195,0.36174 -0.423744,0.11369 -0.923283,0.11369 -0.582221,0 -1.061089,-0.17915 -0.478869,-0.17914 -0.816488,-0.52021 -0.337619,-0.34106 -0.520209,-0.82682 -0.179145,-0.48576 -0.179145,-1.08521 0,-0.58911 0.175699,-1.07831 0.1757,-0.48921 0.516765,-0.83027 0.341064,-0.34106 0.830268,-0.52021 0.489203,-0.18259 1.10932,-0.18259 0.509875,0 0.902612,0.1378 0.39274,0.13436 0.63735,0.34107 0.2446,0.2067 0.36862,0.43753 0.12402,0.23082 0.12402,0.40996 0,0.19293 -0.14469,0.33073 -0.14125,0.13436 -0.34106,0.13436 -0.11025,0 -0.2136,-0.0517 -0.0999,-0.0517 -0.16881,-0.14469 -0.18948,-0.29628 -0.32039,-0.44786 -0.13092,-0.15159 -0.354848,-0.25494 -0.220486,-0.10335 -0.564996,-0.10335 -0.354844,0 -0.633897,0.12402 -0.279053,0.12058 -0.478868,0.35485 -0.196371,0.23082 -0.303169,0.56844 -0.103353,0.33762 -0.103353,0.74758 0,0.88884 0.406522,1.36771 0.409966,0.47886 1.140326,0.47886 0.354845,0 0.664903,-0.093 0.3135,-0.093 0.6339,-0.26528 v -0.81993 h -0.792374 q -0.285943,0 -0.434082,-0.0861 -0.144694,-0.0861 -0.144694,-0.29283 0,-0.16881 0.120578,-0.27905 0.124024,-0.11025 0.334175,-0.11025 h 1.160997 q 0.2136,0 0.36173,0.0379 0.14814,0.0379 0.23772,0.16881 0.093,0.13091 0.093,0.39274 z" />
          <path
             inkscape:connector-curvature="0"
             id="path985"
             style="font-style:normal;font-variant:normal;font-weight:normal;font-stretch:normal;font-size:7.05555534px;font-family:'Arial Rounded MT Bold';-inkscape-font-specification:'Arial Rounded MT Bold, Normal';font-variant-ligatures:normal;font-variant-caps:normal;font-variant-numeric:normal;font-feature-settings:normal;text-align:start;writing-mode:lr-tb;text-anchor:start;stroke-width:0.26458332"
             d="m 103.95851,133.46202 1.96715,2.97656 v -3.00412 q 0,-0.29284 0.12402,-0.43753 0.12747,-0.14814 0.34107,-0.14814 0.22048,0 0.34795,0.14814 0.12747,0.14469 0.12747,0.43753 v 3.97219 q 0,0.66491 -0.55121,0.66491 -0.13781,0 -0.24805,-0.0413 -0.11024,-0.0379 -0.20671,-0.12402 -0.0965,-0.0861 -0.17914,-0.19981 -0.0827,-0.11714 -0.16537,-0.23772 l -1.91891,-2.94211 v 2.95934 q 0,0.28939 -0.13436,0.43753 -0.13436,0.14814 -0.34451,0.14814 -0.21704,0 -0.34796,-0.14814 -0.13091,-0.15159 -0.13091,-0.43753 v -3.8964 q 0,-0.24805 0.0551,-0.3893 0.0655,-0.15503 0.21704,-0.25149 0.15159,-0.0999 0.32729,-0.0999 0.1378,0 0.23426,0.0448 0.0999,0.0448 0.17226,0.12058 0.0758,0.0758 0.15158,0.19637 0.0792,0.12057 0.16192,0.25149 z" />
          <path
             inkscape:connector-curvature="0"
             id="path987"
             style="font-style:normal;font-variant:normal;font-weight:normal;font-stretch:normal;font-size:7.05555534px;font-family:'Arial Rounded MT Bold';-inkscape-font-specification:'Arial Rounded MT Bold, Normal';font-variant-ligatures:normal;font-variant-caps:normal;font-variant-numeric:normal;font-feature-settings:normal;text-align:start;writing-mode:lr-tb;text-anchor:start;stroke-width:0.26458332"
             d="m 111.31379,133.72384 h -2.30477 v 1.24024 h 2.12218 q 0.23427,0 0.34795,0.1068 0.11714,0.10335 0.11714,0.2756 0,0.17226 -0.11369,0.2825 -0.11369,0.1068 -0.3514,0.1068 h -2.12218 v 1.43661 h 2.38401 q 0.24115,0 0.36173,0.11368 0.12403,0.11025 0.12403,0.29628 0,0.17915 -0.12403,0.29283 -0.12058,0.11025 -0.36173,0.11025 h -2.7802 q -0.33417,0 -0.48231,-0.14814 -0.14469,-0.14814 -0.14469,-0.47887 v -3.79649 q 0,-0.22049 0.0654,-0.35829 0.0655,-0.14125 0.20326,-0.20327 0.14125,-0.0654 0.35829,-0.0654 h 2.70096 q 0.2446,0 0.36173,0.11024 0.12058,0.1068 0.12058,0.2825 0,0.17914 -0.12058,0.28939 -0.11713,0.10679 -0.36173,0.10679 z" />
          <path
             inkscape:connector-curvature="0"
             id="path989"
             style="font-style:normal;font-variant:normal;font-weight:normal;font-stretch:normal;font-size:7.05555534px;font-family:'Arial Rounded MT Bold';-inkscape-font-specification:'Arial Rounded MT Bold, Normal';font-variant-ligatures:normal;font-variant-caps:normal;font-variant-numeric:normal;font-feature-settings:normal;text-align:start;writing-mode:lr-tb;text-anchor:start;stroke-width:0.26458332"
             d="m 114.07331,135.82535 h -0.35829 v 1.62264 q 0,0.3204 -0.14125,0.47198 -0.14125,0.15159 -0.36862,0.15159 -0.2446,0 -0.37896,-0.15848 -0.13436,-0.15847 -0.13436,-0.46509 v -3.88606 q 0,-0.33073 0.14814,-0.47887 0.14814,-0.14814 0.47887,-0.14814 h 1.66398 q 0.34451,0 0.58911,0.031 0.2446,0.0276 0.44097,0.11714 0.23771,0.0999 0.4203,0.28594 0.18259,0.18604 0.27561,0.43408 0.0965,0.2446 0.0965,0.52021 0,0.565 -0.32039,0.90262 -0.31695,0.33762 -0.96463,0.47886 0.27216,0.1447 0.52021,0.4272 0.24805,0.28249 0.44097,0.60289 0.19637,0.31695 0.30317,0.57533 0.11024,0.25494 0.11024,0.3514 0,0.0999 -0.0654,0.19981 -0.062,0.0965 -0.17226,0.15159 -0.11024,0.0586 -0.25493,0.0586 -0.17226,0 -0.28939,-0.0827 -0.11714,-0.0792 -0.20326,-0.20326 -0.0827,-0.12402 -0.22738,-0.36518 l -0.40997,-0.68213 q -0.22048,-0.37551 -0.39618,-0.57188 -0.17226,-0.19637 -0.3514,-0.26872 -0.17915,-0.0724 -0.45131,-0.0724 z m 0.58567,-2.12218 h -0.94396 v 1.38838 h 0.9164 q 0.36862,0 0.62011,-0.062 0.2515,-0.0655 0.38241,-0.21704 0.13436,-0.15503 0.13436,-0.42375 0,-0.21015 -0.1068,-0.36863 -0.1068,-0.16192 -0.29628,-0.24115 -0.17914,-0.0758 -0.70624,-0.0758 z" />
        </g>
        <text
           xml:space="preserve"
           style="font-style:normal;font-variant:normal;font-weight:normal;font-stretch:normal;font-size:3.81705546px;line-height:1.25;font-family:Sansita;-inkscape-font-specification:'Sansita, Normal';font-variant-ligatures:normal;font-variant-caps:normal;font-variant-numeric:normal;font-feature-settings:normal;text-align:start;letter-spacing:0px;word-spacing:0px;writing-mode:lr-tb;text-anchor:start;fill:#000000;fill-opacity:1;stroke:none;stroke-width:0.26458332"
           x="66.986374"
           y="142.74792"
           id="text994"><tspan
             sodipodi:role="line"
             id="tspan992"
             x="66.986374"
             y="142.74792"
             style="stroke-width:0.26458332">design your dreams</tspan></text>
      </g>
    </g>
  </g>
</svg>
